<?xml version="1.0" encoding="utf-8" standalone="no"?>
<!DOCTYPE svg PUBLIC "-//W3C//DTD SVG 1.1//EN"
  "http://www.w3.org/Graphics/SVG/1.1/DTD/svg11.dtd">
<svg xmlns:xlink="http://www.w3.org/1999/xlink" width="768.979583pt" height="353.02375pt" viewBox="0 0 768.979583 353.02375" xmlns="http://www.w3.org/2000/svg" version="1.1">
 <metadata>
  <rdf:RDF xmlns:dc="http://purl.org/dc/elements/1.1/" xmlns:cc="http://creativecommons.org/ns#" xmlns:rdf="http://www.w3.org/1999/02/22-rdf-syntax-ns#">
   <cc:Work>
    <dc:type rdf:resource="http://purl.org/dc/dcmitype/StillImage"/>
    <dc:date>2026-09-22T15:44:57.770629</dc:date>
    <dc:format>image/svg+xml</dc:format>
    <dc:creator>
     <cc:Agent>
      <dc:title>Matplotlib v3.10.8, https://matplotlib.org/</dc:title>
     </cc:Agent>
    </dc:creator>
   </cc:Work>
  </rdf:RDF>
 </metadata>
 <defs>
  <style type="text/css">*{stroke-linejoin: round; stroke-linecap: butt}</style>
 </defs>
 <g id="figure_1">
  <g id="patch_1">
   <path d="M 0 353.02375 
L 768.979583 353.02375 
L 768.979583 0 
L 0 0 
z
" style="fill: #ffffff"/>
  </g>
  <g id="axes_1">
   <g id="patch_2">
    <path d="M 43.78125 255.544 
L 376.709689 255.544 
L 376.709689 79.296 
L 43.78125 79.296 
z
" style="fill: #ffffff"/>
   </g>
   <g id="matplotlib.axis_1">
    <g id="xtick_1">
     <g id="line2d_1">
      <path d="M 56.344587 255.544 
L 56.344587 79.296 
" clip-path="url(#pc26bf7b9b1)" style="fill: none; stroke: #b0b0b0; stroke-opacity: 0.15; stroke-width: 0.8; stroke-linecap: square"/>
     </g>
     <g id="line2d_2">
      <defs>
       <path id="m9dee0c1ba7" d="M 0 0 
L 0 3.5 
" style="stroke: #000000; stroke-width: 0.8"/>
      </defs>
      <g>
       <use xlink:href="#m9dee0c1ba7" x="56.344587" y="255.544" style="stroke: #000000; stroke-width: 0.8"/>
      </g>
     </g>
     <g id="text_1">
      <!-- 0.5 -->
      <g transform="translate(48.393025 270.142437) scale(0.1 -0.1)">
       <defs>
        <path id="DejaVuSans-30" d="M 2034 4250 
Q 1547 4250 1301 3770 
Q 1056 3291 1056 2328 
Q 1056 1369 1301 889 
Q 1547 409 2034 409 
Q 2525 409 2770 889 
Q 3016 1369 3016 2328 
Q 3016 3291 2770 3770 
Q 2525 4250 2034 4250 
z
M 2034 4750 
Q 2819 4750 3233 4129 
Q 3647 3509 3647 2328 
Q 3647 1150 3233 529 
Q 2819 -91 2034 -91 
Q 1250 -91 836 529 
Q 422 1150 422 2328 
Q 422 3509 836 4129 
Q 1250 4750 2034 4750 
z
" transform="scale(0.015625)"/>
        <path id="DejaVuSans-2e" d="M 684 794 
L 1344 794 
L 1344 0 
L 684 0 
L 684 794 
z
" transform="scale(0.015625)"/>
        <path id="DejaVuSans-35" d="M 691 4666 
L 3169 4666 
L 3169 4134 
L 1269 4134 
L 1269 2991 
Q 1406 3038 1543 3061 
Q 1681 3084 1819 3084 
Q 2600 3084 3056 2656 
Q 3513 2228 3513 1497 
Q 3513 744 3044 326 
Q 2575 -91 1722 -91 
Q 1428 -91 1123 -41 
Q 819 9 494 109 
L 494 744 
Q 775 591 1075 516 
Q 1375 441 1709 441 
Q 2250 441 2565 725 
Q 2881 1009 2881 1497 
Q 2881 1984 2565 2268 
Q 2250 2553 1709 2553 
Q 1456 2553 1204 2497 
Q 953 2441 691 2322 
L 691 4666 
z
" transform="scale(0.015625)"/>
       </defs>
       <use xlink:href="#DejaVuSans-30"/>
       <use xlink:href="#DejaVuSans-2e" transform="translate(63.623047 0)"/>
       <use xlink:href="#DejaVuSans-35" transform="translate(95.410156 0)"/>
      </g>
     </g>
    </g>
    <g id="xtick_2">
     <g id="line2d_3">
      <path d="M 119.161274 255.544 
L 119.161274 79.296 
" clip-path="url(#pc26bf7b9b1)" style="fill: none; stroke: #b0b0b0; stroke-opacity: 0.15; stroke-width: 0.8; stroke-linecap: square"/>
     </g>
     <g id="line2d_4">
      <g>
       <use xlink:href="#m9dee0c1ba7" x="119.161274" y="255.544" style="stroke: #000000; stroke-width: 0.8"/>
      </g>
     </g>
     <g id="text_2">
      <!-- 0.6 -->
      <g transform="translate(111.209711 270.142437) scale(0.1 -0.1)">
       <defs>
        <path id="DejaVuSans-36" d="M 2113 2584 
Q 1688 2584 1439 2293 
Q 1191 2003 1191 1497 
Q 1191 994 1439 701 
Q 1688 409 2113 409 
Q 2538 409 2786 701 
Q 3034 994 3034 1497 
Q 3034 2003 2786 2293 
Q 2538 2584 2113 2584 
z
M 3366 4563 
L 3366 3988 
Q 3128 4100 2886 4159 
Q 2644 4219 2406 4219 
Q 1781 4219 1451 3797 
Q 1122 3375 1075 2522 
Q 1259 2794 1537 2939 
Q 1816 3084 2150 3084 
Q 2853 3084 3261 2657 
Q 3669 2231 3669 1497 
Q 3669 778 3244 343 
Q 2819 -91 2113 -91 
Q 1303 -91 875 529 
Q 447 1150 447 2328 
Q 447 3434 972 4092 
Q 1497 4750 2381 4750 
Q 2619 4750 2861 4703 
Q 3103 4656 3366 4563 
z
" transform="scale(0.015625)"/>
       </defs>
       <use xlink:href="#DejaVuSans-30"/>
       <use xlink:href="#DejaVuSans-2e" transform="translate(63.623047 0)"/>
       <use xlink:href="#DejaVuSans-36" transform="translate(95.410156 0)"/>
      </g>
     </g>
    </g>
    <g id="xtick_3">
     <g id="line2d_5">
      <path d="M 181.977961 255.544 
L 181.977961 79.296 
" clip-path="url(#pc26bf7b9b1)" style="fill: none; stroke: #b0b0b0; stroke-opacity: 0.15; stroke-width: 0.8; stroke-linecap: square"/>
     </g>
     <g id="line2d_6">
      <g>
       <use xlink:href="#m9dee0c1ba7" x="181.977961" y="255.544" style="stroke: #000000; stroke-width: 0.8"/>
      </g>
     </g>
     <g id="text_3">
      <!-- 0.7 -->
      <g transform="translate(174.026398 270.142437) scale(0.1 -0.1)">
       <defs>
        <path id="DejaVuSans-37" d="M 525 4666 
L 3525 4666 
L 3525 4397 
L 1831 0 
L 1172 0 
L 2766 4134 
L 525 4134 
L 525 4666 
z
" transform="scale(0.015625)"/>
       </defs>
       <use xlink:href="#DejaVuSans-30"/>
       <use xlink:href="#DejaVuSans-2e" transform="translate(63.623047 0)"/>
       <use xlink:href="#DejaVuSans-37" transform="translate(95.410156 0)"/>
      </g>
     </g>
    </g>
    <g id="xtick_4">
     <g id="line2d_7">
      <path d="M 244.794647 255.544 
L 244.794647 79.296 
" clip-path="url(#pc26bf7b9b1)" style="fill: none; stroke: #b0b0b0; stroke-opacity: 0.15; stroke-width: 0.8; stroke-linecap: square"/>
     </g>
     <g id="line2d_8">
      <g>
       <use xlink:href="#m9dee0c1ba7" x="244.794647" y="255.544" style="stroke: #000000; stroke-width: 0.8"/>
      </g>
     </g>
     <g id="text_4">
      <!-- 0.8 -->
      <g transform="translate(236.843085 270.142437) scale(0.1 -0.1)">
       <defs>
        <path id="DejaVuSans-38" d="M 2034 2216 
Q 1584 2216 1326 1975 
Q 1069 1734 1069 1313 
Q 1069 891 1326 650 
Q 1584 409 2034 409 
Q 2484 409 2743 651 
Q 3003 894 3003 1313 
Q 3003 1734 2745 1975 
Q 2488 2216 2034 2216 
z
M 1403 2484 
Q 997 2584 770 2862 
Q 544 3141 544 3541 
Q 544 4100 942 4425 
Q 1341 4750 2034 4750 
Q 2731 4750 3128 4425 
Q 3525 4100 3525 3541 
Q 3525 3141 3298 2862 
Q 3072 2584 2669 2484 
Q 3125 2378 3379 2068 
Q 3634 1759 3634 1313 
Q 3634 634 3220 271 
Q 2806 -91 2034 -91 
Q 1263 -91 848 271 
Q 434 634 434 1313 
Q 434 1759 690 2068 
Q 947 2378 1403 2484 
z
M 1172 3481 
Q 1172 3119 1398 2916 
Q 1625 2713 2034 2713 
Q 2441 2713 2670 2916 
Q 2900 3119 2900 3481 
Q 2900 3844 2670 4047 
Q 2441 4250 2034 4250 
Q 1625 4250 1398 4047 
Q 1172 3844 1172 3481 
z
" transform="scale(0.015625)"/>
       </defs>
       <use xlink:href="#DejaVuSans-30"/>
       <use xlink:href="#DejaVuSans-2e" transform="translate(63.623047 0)"/>
       <use xlink:href="#DejaVuSans-38" transform="translate(95.410156 0)"/>
      </g>
     </g>
    </g>
    <g id="xtick_5">
     <g id="line2d_9">
      <path d="M 307.611334 255.544 
L 307.611334 79.296 
" clip-path="url(#pc26bf7b9b1)" style="fill: none; stroke: #b0b0b0; stroke-opacity: 0.15; stroke-width: 0.8; stroke-linecap: square"/>
     </g>
     <g id="line2d_10">
      <g>
       <use xlink:href="#m9dee0c1ba7" x="307.611334" y="255.544" style="stroke: #000000; stroke-width: 0.8"/>
      </g>
     </g>
     <g id="text_5">
      <!-- 0.9 -->
      <g transform="translate(299.659771 270.142437) scale(0.1 -0.1)">
       <defs>
        <path id="DejaVuSans-39" d="M 703 97 
L 703 672 
Q 941 559 1184 500 
Q 1428 441 1663 441 
Q 2288 441 2617 861 
Q 2947 1281 2994 2138 
Q 2813 1869 2534 1725 
Q 2256 1581 1919 1581 
Q 1219 1581 811 2004 
Q 403 2428 403 3163 
Q 403 3881 828 4315 
Q 1253 4750 1959 4750 
Q 2769 4750 3195 4129 
Q 3622 3509 3622 2328 
Q 3622 1225 3098 567 
Q 2575 -91 1691 -91 
Q 1453 -91 1209 -44 
Q 966 3 703 97 
z
M 1959 2075 
Q 2384 2075 2632 2365 
Q 2881 2656 2881 3163 
Q 2881 3666 2632 3958 
Q 2384 4250 1959 4250 
Q 1534 4250 1286 3958 
Q 1038 3666 1038 3163 
Q 1038 2656 1286 2365 
Q 1534 2075 1959 2075 
z
" transform="scale(0.015625)"/>
       </defs>
       <use xlink:href="#DejaVuSans-30"/>
       <use xlink:href="#DejaVuSans-2e" transform="translate(63.623047 0)"/>
       <use xlink:href="#DejaVuSans-39" transform="translate(95.410156 0)"/>
      </g>
     </g>
    </g>
    <g id="xtick_6">
     <g id="line2d_11">
      <path d="M 370.42802 255.544 
L 370.42802 79.296 
" clip-path="url(#pc26bf7b9b1)" style="fill: none; stroke: #b0b0b0; stroke-opacity: 0.15; stroke-width: 0.8; stroke-linecap: square"/>
     </g>
     <g id="line2d_12">
      <g>
       <use xlink:href="#m9dee0c1ba7" x="370.42802" y="255.544" style="stroke: #000000; stroke-width: 0.8"/>
      </g>
     </g>
     <g id="text_6">
      <!-- 1.0 -->
      <g transform="translate(362.476458 270.142437) scale(0.1 -0.1)">
       <defs>
        <path id="DejaVuSans-31" d="M 794 531 
L 1825 531 
L 1825 4091 
L 703 3866 
L 703 4441 
L 1819 4666 
L 2450 4666 
L 2450 531 
L 3481 531 
L 3481 0 
L 794 0 
L 794 531 
z
" transform="scale(0.015625)"/>
       </defs>
       <use xlink:href="#DejaVuSans-31"/>
       <use xlink:href="#DejaVuSans-2e" transform="translate(63.623047 0)"/>
       <use xlink:href="#DejaVuSans-30" transform="translate(95.410156 0)"/>
      </g>
     </g>
    </g>
    <g id="text_7">
     <!-- Mean top-label probability -->
     <g transform="translate(144.677501 283.820562) scale(0.1 -0.1)">
      <defs>
       <path id="DejaVuSans-4d" d="M 628 4666 
L 1569 4666 
L 2759 1491 
L 3956 4666 
L 4897 4666 
L 4897 0 
L 4281 0 
L 4281 4097 
L 3078 897 
L 2444 897 
L 1241 4097 
L 1241 0 
L 628 0 
L 628 4666 
z
" transform="scale(0.015625)"/>
       <path id="DejaVuSans-65" d="M 3597 1894 
L 3597 1613 
L 953 1613 
Q 991 1019 1311 708 
Q 1631 397 2203 397 
Q 2534 397 2845 478 
Q 3156 559 3463 722 
L 3463 178 
Q 3153 47 2828 -22 
Q 2503 -91 2169 -91 
Q 1331 -91 842 396 
Q 353 884 353 1716 
Q 353 2575 817 3079 
Q 1281 3584 2069 3584 
Q 2775 3584 3186 3129 
Q 3597 2675 3597 1894 
z
M 3022 2063 
Q 3016 2534 2758 2815 
Q 2500 3097 2075 3097 
Q 1594 3097 1305 2825 
Q 1016 2553 972 2059 
L 3022 2063 
z
" transform="scale(0.015625)"/>
       <path id="DejaVuSans-61" d="M 2194 1759 
Q 1497 1759 1228 1600 
Q 959 1441 959 1056 
Q 959 750 1161 570 
Q 1363 391 1709 391 
Q 2188 391 2477 730 
Q 2766 1069 2766 1631 
L 2766 1759 
L 2194 1759 
z
M 3341 1997 
L 3341 0 
L 2766 0 
L 2766 531 
Q 2569 213 2275 61 
Q 1981 -91 1556 -91 
Q 1019 -91 701 211 
Q 384 513 384 1019 
Q 384 1609 779 1909 
Q 1175 2209 1959 2209 
L 2766 2209 
L 2766 2266 
Q 2766 2663 2505 2880 
Q 2244 3097 1772 3097 
Q 1472 3097 1187 3025 
Q 903 2953 641 2809 
L 641 3341 
Q 956 3463 1253 3523 
Q 1550 3584 1831 3584 
Q 2591 3584 2966 3190 
Q 3341 2797 3341 1997 
z
" transform="scale(0.015625)"/>
       <path id="DejaVuSans-6e" d="M 3513 2113 
L 3513 0 
L 2938 0 
L 2938 2094 
Q 2938 2591 2744 2837 
Q 2550 3084 2163 3084 
Q 1697 3084 1428 2787 
Q 1159 2491 1159 1978 
L 1159 0 
L 581 0 
L 581 3500 
L 1159 3500 
L 1159 2956 
Q 1366 3272 1645 3428 
Q 1925 3584 2291 3584 
Q 2894 3584 3203 3211 
Q 3513 2838 3513 2113 
z
" transform="scale(0.015625)"/>
       <path id="DejaVuSans-20" transform="scale(0.015625)"/>
       <path id="DejaVuSans-74" d="M 1172 4494 
L 1172 3500 
L 2356 3500 
L 2356 3053 
L 1172 3053 
L 1172 1153 
Q 1172 725 1289 603 
Q 1406 481 1766 481 
L 2356 481 
L 2356 0 
L 1766 0 
Q 1100 0 847 248 
Q 594 497 594 1153 
L 594 3053 
L 172 3053 
L 172 3500 
L 594 3500 
L 594 4494 
L 1172 4494 
z
" transform="scale(0.015625)"/>
       <path id="DejaVuSans-6f" d="M 1959 3097 
Q 1497 3097 1228 2736 
Q 959 2375 959 1747 
Q 959 1119 1226 758 
Q 1494 397 1959 397 
Q 2419 397 2687 759 
Q 2956 1122 2956 1747 
Q 2956 2369 2687 2733 
Q 2419 3097 1959 3097 
z
M 1959 3584 
Q 2709 3584 3137 3096 
Q 3566 2609 3566 1747 
Q 3566 888 3137 398 
Q 2709 -91 1959 -91 
Q 1206 -91 779 398 
Q 353 888 353 1747 
Q 353 2609 779 3096 
Q 1206 3584 1959 3584 
z
" transform="scale(0.015625)"/>
       <path id="DejaVuSans-70" d="M 1159 525 
L 1159 -1331 
L 581 -1331 
L 581 3500 
L 1159 3500 
L 1159 2969 
Q 1341 3281 1617 3432 
Q 1894 3584 2278 3584 
Q 2916 3584 3314 3078 
Q 3713 2572 3713 1747 
Q 3713 922 3314 415 
Q 2916 -91 2278 -91 
Q 1894 -91 1617 61 
Q 1341 213 1159 525 
z
M 3116 1747 
Q 3116 2381 2855 2742 
Q 2594 3103 2138 3103 
Q 1681 3103 1420 2742 
Q 1159 2381 1159 1747 
Q 1159 1113 1420 752 
Q 1681 391 2138 391 
Q 2594 391 2855 752 
Q 3116 1113 3116 1747 
z
" transform="scale(0.015625)"/>
       <path id="DejaVuSans-2d" d="M 313 2009 
L 1997 2009 
L 1997 1497 
L 313 1497 
L 313 2009 
z
" transform="scale(0.015625)"/>
       <path id="DejaVuSans-6c" d="M 603 4863 
L 1178 4863 
L 1178 0 
L 603 0 
L 603 4863 
z
" transform="scale(0.015625)"/>
       <path id="DejaVuSans-62" d="M 3116 1747 
Q 3116 2381 2855 2742 
Q 2594 3103 2138 3103 
Q 1681 3103 1420 2742 
Q 1159 2381 1159 1747 
Q 1159 1113 1420 752 
Q 1681 391 2138 391 
Q 2594 391 2855 752 
Q 3116 1113 3116 1747 
z
M 1159 2969 
Q 1341 3281 1617 3432 
Q 1894 3584 2278 3584 
Q 2916 3584 3314 3078 
Q 3713 2572 3713 1747 
Q 3713 922 3314 415 
Q 2916 -91 2278 -91 
Q 1894 -91 1617 61 
Q 1341 213 1159 525 
L 1159 0 
L 581 0 
L 581 4863 
L 1159 4863 
L 1159 2969 
z
" transform="scale(0.015625)"/>
       <path id="DejaVuSans-72" d="M 2631 2963 
Q 2534 3019 2420 3045 
Q 2306 3072 2169 3072 
Q 1681 3072 1420 2755 
Q 1159 2438 1159 1844 
L 1159 0 
L 581 0 
L 581 3500 
L 1159 3500 
L 1159 2956 
Q 1341 3275 1631 3429 
Q 1922 3584 2338 3584 
Q 2397 3584 2469 3576 
Q 2541 3569 2628 3553 
L 2631 2963 
z
" transform="scale(0.015625)"/>
       <path id="DejaVuSans-69" d="M 603 3500 
L 1178 3500 
L 1178 0 
L 603 0 
L 603 3500 
z
M 603 4863 
L 1178 4863 
L 1178 4134 
L 603 4134 
L 603 4863 
z
" transform="scale(0.015625)"/>
       <path id="DejaVuSans-79" d="M 2059 -325 
Q 1816 -950 1584 -1140 
Q 1353 -1331 966 -1331 
L 506 -1331 
L 506 -850 
L 844 -850 
Q 1081 -850 1212 -737 
Q 1344 -625 1503 -206 
L 1606 56 
L 191 3500 
L 800 3500 
L 1894 763 
L 2988 3500 
L 3597 3500 
L 2059 -325 
z
" transform="scale(0.015625)"/>
      </defs>
      <use xlink:href="#DejaVuSans-4d"/>
      <use xlink:href="#DejaVuSans-65" transform="translate(86.279297 0)"/>
      <use xlink:href="#DejaVuSans-61" transform="translate(147.802734 0)"/>
      <use xlink:href="#DejaVuSans-6e" transform="translate(209.082031 0)"/>
      <use xlink:href="#DejaVuSans-20" transform="translate(272.460938 0)"/>
      <use xlink:href="#DejaVuSans-74" transform="translate(304.248047 0)"/>
      <use xlink:href="#DejaVuSans-6f" transform="translate(343.457031 0)"/>
      <use xlink:href="#DejaVuSans-70" transform="translate(404.638672 0)"/>
      <use xlink:href="#DejaVuSans-2d" transform="translate(468.115234 0)"/>
      <use xlink:href="#DejaVuSans-6c" transform="translate(504.199219 0)"/>
      <use xlink:href="#DejaVuSans-61" transform="translate(531.982422 0)"/>
      <use xlink:href="#DejaVuSans-62" transform="translate(593.261719 0)"/>
      <use xlink:href="#DejaVuSans-65" transform="translate(656.738281 0)"/>
      <use xlink:href="#DejaVuSans-6c" transform="translate(718.261719 0)"/>
      <use xlink:href="#DejaVuSans-20" transform="translate(746.044922 0)"/>
      <use xlink:href="#DejaVuSans-70" transform="translate(777.832031 0)"/>
      <use xlink:href="#DejaVuSans-72" transform="translate(841.308594 0)"/>
      <use xlink:href="#DejaVuSans-6f" transform="translate(880.171875 0)"/>
      <use xlink:href="#DejaVuSans-62" transform="translate(941.353516 0)"/>
      <use xlink:href="#DejaVuSans-61" transform="translate(1004.830078 0)"/>
      <use xlink:href="#DejaVuSans-62" transform="translate(1066.109375 0)"/>
      <use xlink:href="#DejaVuSans-69" transform="translate(1129.585938 0)"/>
      <use xlink:href="#DejaVuSans-6c" transform="translate(1157.369141 0)"/>
      <use xlink:href="#DejaVuSans-69" transform="translate(1185.152344 0)"/>
      <use xlink:href="#DejaVuSans-74" transform="translate(1212.935547 0)"/>
      <use xlink:href="#DejaVuSans-79" transform="translate(1252.144531 0)"/>
     </g>
    </g>
   </g>
   <g id="matplotlib.axis_2">
    <g id="ytick_1">
     <g id="line2d_13">
      <path d="M 43.78125 255.544 
L 376.709689 255.544 
" clip-path="url(#pc26bf7b9b1)" style="fill: none; stroke: #b0b0b0; stroke-opacity: 0.15; stroke-width: 0.8; stroke-linecap: square"/>
     </g>
     <g id="line2d_14">
      <defs>
       <path id="mf8e502f2d9" d="M 0 0 
L -3.5 0 
" style="stroke: #000000; stroke-width: 0.8"/>
      </defs>
      <g>
       <use xlink:href="#mf8e502f2d9" x="43.78125" y="255.544" style="stroke: #000000; stroke-width: 0.8"/>
      </g>
     </g>
     <g id="text_8">
      <!-- 0.0 -->
      <g transform="translate(20.878125 259.343219) scale(0.1 -0.1)">
       <use xlink:href="#DejaVuSans-30"/>
       <use xlink:href="#DejaVuSans-2e" transform="translate(63.623047 0)"/>
       <use xlink:href="#DejaVuSans-30" transform="translate(95.410156 0)"/>
      </g>
     </g>
    </g>
    <g id="ytick_2">
     <g id="line2d_15">
      <path d="M 43.78125 221.321087 
L 376.709689 221.321087 
" clip-path="url(#pc26bf7b9b1)" style="fill: none; stroke: #b0b0b0; stroke-opacity: 0.15; stroke-width: 0.8; stroke-linecap: square"/>
     </g>
     <g id="line2d_16">
      <g>
       <use xlink:href="#mf8e502f2d9" x="43.78125" y="221.321087" style="stroke: #000000; stroke-width: 0.8"/>
      </g>
     </g>
     <g id="text_9">
      <!-- 0.2 -->
      <g transform="translate(20.878125 225.120306) scale(0.1 -0.1)">
       <defs>
        <path id="DejaVuSans-32" d="M 1228 531 
L 3431 531 
L 3431 0 
L 469 0 
L 469 531 
Q 828 903 1448 1529 
Q 2069 2156 2228 2338 
Q 2531 2678 2651 2914 
Q 2772 3150 2772 3378 
Q 2772 3750 2511 3984 
Q 2250 4219 1831 4219 
Q 1534 4219 1204 4116 
Q 875 4013 500 3803 
L 500 4441 
Q 881 4594 1212 4672 
Q 1544 4750 1819 4750 
Q 2544 4750 2975 4387 
Q 3406 4025 3406 3419 
Q 3406 3131 3298 2873 
Q 3191 2616 2906 2266 
Q 2828 2175 2409 1742 
Q 1991 1309 1228 531 
z
" transform="scale(0.015625)"/>
       </defs>
       <use xlink:href="#DejaVuSans-30"/>
       <use xlink:href="#DejaVuSans-2e" transform="translate(63.623047 0)"/>
       <use xlink:href="#DejaVuSans-32" transform="translate(95.410156 0)"/>
      </g>
     </g>
    </g>
    <g id="ytick_3">
     <g id="line2d_17">
      <path d="M 43.78125 187.098175 
L 376.709689 187.098175 
" clip-path="url(#pc26bf7b9b1)" style="fill: none; stroke: #b0b0b0; stroke-opacity: 0.15; stroke-width: 0.8; stroke-linecap: square"/>
     </g>
     <g id="line2d_18">
      <g>
       <use xlink:href="#mf8e502f2d9" x="43.78125" y="187.098175" style="stroke: #000000; stroke-width: 0.8"/>
      </g>
     </g>
     <g id="text_10">
      <!-- 0.4 -->
      <g transform="translate(20.878125 190.897394) scale(0.1 -0.1)">
       <defs>
        <path id="DejaVuSans-34" d="M 2419 4116 
L 825 1625 
L 2419 1625 
L 2419 4116 
z
M 2253 4666 
L 3047 4666 
L 3047 1625 
L 3713 1625 
L 3713 1100 
L 3047 1100 
L 3047 0 
L 2419 0 
L 2419 1100 
L 313 1100 
L 313 1709 
L 2253 4666 
z
" transform="scale(0.015625)"/>
       </defs>
       <use xlink:href="#DejaVuSans-30"/>
       <use xlink:href="#DejaVuSans-2e" transform="translate(63.623047 0)"/>
       <use xlink:href="#DejaVuSans-34" transform="translate(95.410156 0)"/>
      </g>
     </g>
    </g>
    <g id="ytick_4">
     <g id="line2d_19">
      <path d="M 43.78125 152.875262 
L 376.709689 152.875262 
" clip-path="url(#pc26bf7b9b1)" style="fill: none; stroke: #b0b0b0; stroke-opacity: 0.15; stroke-width: 0.8; stroke-linecap: square"/>
     </g>
     <g id="line2d_20">
      <g>
       <use xlink:href="#mf8e502f2d9" x="43.78125" y="152.875262" style="stroke: #000000; stroke-width: 0.8"/>
      </g>
     </g>
     <g id="text_11">
      <!-- 0.6 -->
      <g transform="translate(20.878125 156.674481) scale(0.1 -0.1)">
       <use xlink:href="#DejaVuSans-30"/>
       <use xlink:href="#DejaVuSans-2e" transform="translate(63.623047 0)"/>
       <use xlink:href="#DejaVuSans-36" transform="translate(95.410156 0)"/>
      </g>
     </g>
    </g>
    <g id="ytick_5">
     <g id="line2d_21">
      <path d="M 43.78125 118.65235 
L 376.709689 118.65235 
" clip-path="url(#pc26bf7b9b1)" style="fill: none; stroke: #b0b0b0; stroke-opacity: 0.15; stroke-width: 0.8; stroke-linecap: square"/>
     </g>
     <g id="line2d_22">
      <g>
       <use xlink:href="#mf8e502f2d9" x="43.78125" y="118.65235" style="stroke: #000000; stroke-width: 0.8"/>
      </g>
     </g>
     <g id="text_12">
      <!-- 0.8 -->
      <g transform="translate(20.878125 122.451568) scale(0.1 -0.1)">
       <use xlink:href="#DejaVuSans-30"/>
       <use xlink:href="#DejaVuSans-2e" transform="translate(63.623047 0)"/>
       <use xlink:href="#DejaVuSans-38" transform="translate(95.410156 0)"/>
      </g>
     </g>
    </g>
    <g id="ytick_6">
     <g id="line2d_23">
      <path d="M 43.78125 84.429437 
L 376.709689 84.429437 
" clip-path="url(#pc26bf7b9b1)" style="fill: none; stroke: #b0b0b0; stroke-opacity: 0.15; stroke-width: 0.8; stroke-linecap: square"/>
     </g>
     <g id="line2d_24">
      <g>
       <use xlink:href="#mf8e502f2d9" x="43.78125" y="84.429437" style="stroke: #000000; stroke-width: 0.8"/>
      </g>
     </g>
     <g id="text_13">
      <!-- 1.0 -->
      <g transform="translate(20.878125 88.228656) scale(0.1 -0.1)">
       <use xlink:href="#DejaVuSans-31"/>
       <use xlink:href="#DejaVuSans-2e" transform="translate(63.623047 0)"/>
       <use xlink:href="#DejaVuSans-30" transform="translate(95.410156 0)"/>
      </g>
     </g>
    </g>
    <g id="text_14">
     <!-- Empirical accuracy -->
     <g transform="translate(14.798438 214.808281) rotate(-90) scale(0.1 -0.1)">
      <defs>
       <path id="DejaVuSans-45" d="M 628 4666 
L 3578 4666 
L 3578 4134 
L 1259 4134 
L 1259 2753 
L 3481 2753 
L 3481 2222 
L 1259 2222 
L 1259 531 
L 3634 531 
L 3634 0 
L 628 0 
L 628 4666 
z
" transform="scale(0.015625)"/>
       <path id="DejaVuSans-6d" d="M 3328 2828 
Q 3544 3216 3844 3400 
Q 4144 3584 4550 3584 
Q 5097 3584 5394 3201 
Q 5691 2819 5691 2113 
L 5691 0 
L 5113 0 
L 5113 2094 
Q 5113 2597 4934 2840 
Q 4756 3084 4391 3084 
Q 3944 3084 3684 2787 
Q 3425 2491 3425 1978 
L 3425 0 
L 2847 0 
L 2847 2094 
Q 2847 2600 2669 2842 
Q 2491 3084 2119 3084 
Q 1678 3084 1418 2786 
Q 1159 2488 1159 1978 
L 1159 0 
L 581 0 
L 581 3500 
L 1159 3500 
L 1159 2956 
Q 1356 3278 1631 3431 
Q 1906 3584 2284 3584 
Q 2666 3584 2933 3390 
Q 3200 3197 3328 2828 
z
" transform="scale(0.015625)"/>
       <path id="DejaVuSans-63" d="M 3122 3366 
L 3122 2828 
Q 2878 2963 2633 3030 
Q 2388 3097 2138 3097 
Q 1578 3097 1268 2742 
Q 959 2388 959 1747 
Q 959 1106 1268 751 
Q 1578 397 2138 397 
Q 2388 397 2633 464 
Q 2878 531 3122 666 
L 3122 134 
Q 2881 22 2623 -34 
Q 2366 -91 2075 -91 
Q 1284 -91 818 406 
Q 353 903 353 1747 
Q 353 2603 823 3093 
Q 1294 3584 2113 3584 
Q 2378 3584 2631 3529 
Q 2884 3475 3122 3366 
z
" transform="scale(0.015625)"/>
       <path id="DejaVuSans-75" d="M 544 1381 
L 544 3500 
L 1119 3500 
L 1119 1403 
Q 1119 906 1312 657 
Q 1506 409 1894 409 
Q 2359 409 2629 706 
Q 2900 1003 2900 1516 
L 2900 3500 
L 3475 3500 
L 3475 0 
L 2900 0 
L 2900 538 
Q 2691 219 2414 64 
Q 2138 -91 1772 -91 
Q 1169 -91 856 284 
Q 544 659 544 1381 
z
M 1991 3584 
L 1991 3584 
z
" transform="scale(0.015625)"/>
      </defs>
      <use xlink:href="#DejaVuSans-45"/>
      <use xlink:href="#DejaVuSans-6d" transform="translate(63.183594 0)"/>
      <use xlink:href="#DejaVuSans-70" transform="translate(160.595703 0)"/>
      <use xlink:href="#DejaVuSans-69" transform="translate(224.072266 0)"/>
      <use xlink:href="#DejaVuSans-72" transform="translate(251.855469 0)"/>
      <use xlink:href="#DejaVuSans-69" transform="translate(292.96875 0)"/>
      <use xlink:href="#DejaVuSans-63" transform="translate(320.751953 0)"/>
      <use xlink:href="#DejaVuSans-61" transform="translate(375.732422 0)"/>
      <use xlink:href="#DejaVuSans-6c" transform="translate(437.011719 0)"/>
      <use xlink:href="#DejaVuSans-20" transform="translate(464.794922 0)"/>
      <use xlink:href="#DejaVuSans-61" transform="translate(496.582031 0)"/>
      <use xlink:href="#DejaVuSans-63" transform="translate(557.861328 0)"/>
      <use xlink:href="#DejaVuSans-63" transform="translate(612.841797 0)"/>
      <use xlink:href="#DejaVuSans-75" transform="translate(667.822266 0)"/>
      <use xlink:href="#DejaVuSans-72" transform="translate(731.201172 0)"/>
      <use xlink:href="#DejaVuSans-61" transform="translate(772.314453 0)"/>
      <use xlink:href="#DejaVuSans-63" transform="translate(833.59375 0)"/>
      <use xlink:href="#DejaVuSans-79" transform="translate(888.574219 0)"/>
     </g>
    </g>
   </g>
   <g id="line2d_25">
    <path d="M -1 185.607558 
L 370.42802 84.429437 
" clip-path="url(#pc26bf7b9b1)" style="fill: none; stroke-dasharray: 3.7,1.6; stroke-dashoffset: 0; stroke: #aaaaaa"/>
   </g>
   <g id="line2d_26">
    <path d="M 67.015018 205.216187 
L 94.615066 136.282335 
L 140.717821 110.355886 
L 183.194822 84.429437 
L 225.353149 90.133256 
L 267.032456 97.592096 
L 304.40292 84.429437 
L 340.856835 84.429437 
" clip-path="url(#pc26bf7b9b1)" style="fill: none; stroke: #2874a6; stroke-width: 1.5; stroke-linecap: square"/>
    <defs>
     <path id="m6799b2fcbf" d="M 0 2 
C 0.530406 2 1.03916 1.789267 1.414214 1.414214 
C 1.789267 1.03916 2 0.530406 2 0 
C 2 -0.530406 1.789267 -1.03916 1.414214 -1.414214 
C 1.03916 -1.789267 0.530406 -2 0 -2 
C -0.530406 -2 -1.03916 -1.789267 -1.414214 -1.414214 
C -1.789267 -1.03916 -2 -0.530406 -2 0 
C -2 0.530406 -1.789267 1.03916 -1.414214 1.414214 
C -1.03916 1.789267 -0.530406 2 0 2 
z
" style="stroke: #2874a6"/>
    </defs>
    <g clip-path="url(#pc26bf7b9b1)">
     <use xlink:href="#m6799b2fcbf" x="67.015018" y="205.216187" style="fill: #2874a6; stroke: #2874a6"/>
     <use xlink:href="#m6799b2fcbf" x="94.615066" y="136.282335" style="fill: #2874a6; stroke: #2874a6"/>
     <use xlink:href="#m6799b2fcbf" x="140.717821" y="110.355886" style="fill: #2874a6; stroke: #2874a6"/>
     <use xlink:href="#m6799b2fcbf" x="183.194822" y="84.429437" style="fill: #2874a6; stroke: #2874a6"/>
     <use xlink:href="#m6799b2fcbf" x="225.353149" y="90.133256" style="fill: #2874a6; stroke: #2874a6"/>
     <use xlink:href="#m6799b2fcbf" x="267.032456" y="97.592096" style="fill: #2874a6; stroke: #2874a6"/>
     <use xlink:href="#m6799b2fcbf" x="304.40292" y="84.429437" style="fill: #2874a6; stroke: #2874a6"/>
     <use xlink:href="#m6799b2fcbf" x="340.856835" y="84.429437" style="fill: #2874a6; stroke: #2874a6"/>
    </g>
   </g>
   <g id="line2d_27">
    <path d="M 63.978543 141.467625 
L 97.609854 130.059987 
L 137.843559 134.337851 
L 184.201895 105.818757 
L 222.333039 98.688984 
L 266.744002 91.274019 
L 308.365637 84.429437 
L 346.99027 88.81699 
" clip-path="url(#pc26bf7b9b1)" style="fill: none; stroke: #15927f; stroke-width: 1.5; stroke-linecap: square"/>
    <defs>
     <path id="m203d1f03a9" d="M 0 2 
C 0.530406 2 1.03916 1.789267 1.414214 1.414214 
C 1.789267 1.03916 2 0.530406 2 0 
C 2 -0.530406 1.789267 -1.03916 1.414214 -1.414214 
C 1.03916 -1.789267 0.530406 -2 0 -2 
C -0.530406 -2 -1.03916 -1.789267 -1.414214 -1.414214 
C -1.789267 -1.03916 -2 -0.530406 -2 0 
C -2 0.530406 -1.789267 1.03916 -1.414214 1.414214 
C -1.03916 1.789267 -0.530406 2 0 2 
z
" style="stroke: #15927f"/>
    </defs>
    <g clip-path="url(#pc26bf7b9b1)">
     <use xlink:href="#m203d1f03a9" x="63.978543" y="141.467625" style="fill: #15927f; stroke: #15927f"/>
     <use xlink:href="#m203d1f03a9" x="97.609854" y="130.059987" style="fill: #15927f; stroke: #15927f"/>
     <use xlink:href="#m203d1f03a9" x="137.843559" y="134.337851" style="fill: #15927f; stroke: #15927f"/>
     <use xlink:href="#m203d1f03a9" x="184.201895" y="105.818757" style="fill: #15927f; stroke: #15927f"/>
     <use xlink:href="#m203d1f03a9" x="222.333039" y="98.688984" style="fill: #15927f; stroke: #15927f"/>
     <use xlink:href="#m203d1f03a9" x="266.744002" y="91.274019" style="fill: #15927f; stroke: #15927f"/>
     <use xlink:href="#m203d1f03a9" x="308.365637" y="84.429437" style="fill: #15927f; stroke: #15927f"/>
     <use xlink:href="#m203d1f03a9" x="346.99027" y="88.81699" style="fill: #15927f; stroke: #15927f"/>
    </g>
   </g>
   <g id="line2d_28">
    <path d="M 67.869962 221.321087 
L 100.464272 238.432544 
L 142.304618 175.887221 
L 182.768303 162.481694 
L 217.560982 132.692519 
L 260.30219 101.540893 
L 299.627462 84.429437 
" clip-path="url(#pc26bf7b9b1)" style="fill: none; stroke: #778899; stroke-width: 1.5; stroke-linecap: square"/>
    <defs>
     <path id="m8be6c40619" d="M 0 2 
C 0.530406 2 1.03916 1.789267 1.414214 1.414214 
C 1.789267 1.03916 2 0.530406 2 0 
C 2 -0.530406 1.789267 -1.03916 1.414214 -1.414214 
C 1.03916 -1.789267 0.530406 -2 0 -2 
C -0.530406 -2 -1.03916 -1.789267 -1.414214 -1.414214 
C -1.789267 -1.03916 -2 -0.530406 -2 0 
C -2 0.530406 -1.789267 1.03916 -1.414214 1.414214 
C -1.03916 1.789267 -0.530406 2 0 2 
z
" style="stroke: #778899"/>
    </defs>
    <g clip-path="url(#pc26bf7b9b1)">
     <use xlink:href="#m8be6c40619" x="67.869962" y="221.321087" style="fill: #778899; stroke: #778899"/>
     <use xlink:href="#m8be6c40619" x="100.464272" y="238.432544" style="fill: #778899; stroke: #778899"/>
     <use xlink:href="#m8be6c40619" x="142.304618" y="175.887221" style="fill: #778899; stroke: #778899"/>
     <use xlink:href="#m8be6c40619" x="182.768303" y="162.481694" style="fill: #778899; stroke: #778899"/>
     <use xlink:href="#m8be6c40619" x="217.560982" y="132.692519" style="fill: #778899; stroke: #778899"/>
     <use xlink:href="#m8be6c40619" x="260.30219" y="101.540893" style="fill: #778899; stroke: #778899"/>
     <use xlink:href="#m8be6c40619" x="299.627462" y="84.429437" style="fill: #778899; stroke: #778899"/>
    </g>
   </g>
   <g id="patch_3">
    <path d="M 43.78125 255.544 
L 43.78125 79.296 
" style="fill: none; stroke: #000000; stroke-width: 0.8; stroke-linejoin: miter; stroke-linecap: square"/>
   </g>
   <g id="patch_4">
    <path d="M 43.78125 255.544 
L 376.709689 255.544 
" style="fill: none; stroke: #000000; stroke-width: 0.8; stroke-linejoin: miter; stroke-linecap: square"/>
   </g>
   <g id="text_15">
    <!-- Reliability (15 equal-width bins) -->
    <g transform="translate(115.139845 73.296) scale(0.12 -0.12)">
     <defs>
      <path id="DejaVuSans-52" d="M 2841 2188 
Q 3044 2119 3236 1894 
Q 3428 1669 3622 1275 
L 4263 0 
L 3584 0 
L 2988 1197 
Q 2756 1666 2539 1819 
Q 2322 1972 1947 1972 
L 1259 1972 
L 1259 0 
L 628 0 
L 628 4666 
L 2053 4666 
Q 2853 4666 3247 4331 
Q 3641 3997 3641 3322 
Q 3641 2881 3436 2590 
Q 3231 2300 2841 2188 
z
M 1259 4147 
L 1259 2491 
L 2053 2491 
Q 2509 2491 2742 2702 
Q 2975 2913 2975 3322 
Q 2975 3731 2742 3939 
Q 2509 4147 2053 4147 
L 1259 4147 
z
" transform="scale(0.015625)"/>
      <path id="DejaVuSans-28" d="M 1984 4856 
Q 1566 4138 1362 3434 
Q 1159 2731 1159 2009 
Q 1159 1288 1364 580 
Q 1569 -128 1984 -844 
L 1484 -844 
Q 1016 -109 783 600 
Q 550 1309 550 2009 
Q 550 2706 781 3412 
Q 1013 4119 1484 4856 
L 1984 4856 
z
" transform="scale(0.015625)"/>
      <path id="DejaVuSans-71" d="M 947 1747 
Q 947 1113 1208 752 
Q 1469 391 1925 391 
Q 2381 391 2643 752 
Q 2906 1113 2906 1747 
Q 2906 2381 2643 2742 
Q 2381 3103 1925 3103 
Q 1469 3103 1208 2742 
Q 947 2381 947 1747 
z
M 2906 525 
Q 2725 213 2448 61 
Q 2172 -91 1784 -91 
Q 1150 -91 751 415 
Q 353 922 353 1747 
Q 353 2572 751 3078 
Q 1150 3584 1784 3584 
Q 2172 3584 2448 3432 
Q 2725 3281 2906 2969 
L 2906 3500 
L 3481 3500 
L 3481 -1331 
L 2906 -1331 
L 2906 525 
z
" transform="scale(0.015625)"/>
      <path id="DejaVuSans-77" d="M 269 3500 
L 844 3500 
L 1563 769 
L 2278 3500 
L 2956 3500 
L 3675 769 
L 4391 3500 
L 4966 3500 
L 4050 0 
L 3372 0 
L 2619 2869 
L 1863 0 
L 1184 0 
L 269 3500 
z
" transform="scale(0.015625)"/>
      <path id="DejaVuSans-64" d="M 2906 2969 
L 2906 4863 
L 3481 4863 
L 3481 0 
L 2906 0 
L 2906 525 
Q 2725 213 2448 61 
Q 2172 -91 1784 -91 
Q 1150 -91 751 415 
Q 353 922 353 1747 
Q 353 2572 751 3078 
Q 1150 3584 1784 3584 
Q 2172 3584 2448 3432 
Q 2725 3281 2906 2969 
z
M 947 1747 
Q 947 1113 1208 752 
Q 1469 391 1925 391 
Q 2381 391 2643 752 
Q 2906 1113 2906 1747 
Q 2906 2381 2643 2742 
Q 2381 3103 1925 3103 
Q 1469 3103 1208 2742 
Q 947 2381 947 1747 
z
" transform="scale(0.015625)"/>
      <path id="DejaVuSans-68" d="M 3513 2113 
L 3513 0 
L 2938 0 
L 2938 2094 
Q 2938 2591 2744 2837 
Q 2550 3084 2163 3084 
Q 1697 3084 1428 2787 
Q 1159 2491 1159 1978 
L 1159 0 
L 581 0 
L 581 4863 
L 1159 4863 
L 1159 2956 
Q 1366 3272 1645 3428 
Q 1925 3584 2291 3584 
Q 2894 3584 3203 3211 
Q 3513 2838 3513 2113 
z
" transform="scale(0.015625)"/>
      <path id="DejaVuSans-73" d="M 2834 3397 
L 2834 2853 
Q 2591 2978 2328 3040 
Q 2066 3103 1784 3103 
Q 1356 3103 1142 2972 
Q 928 2841 928 2578 
Q 928 2378 1081 2264 
Q 1234 2150 1697 2047 
L 1894 2003 
Q 2506 1872 2764 1633 
Q 3022 1394 3022 966 
Q 3022 478 2636 193 
Q 2250 -91 1575 -91 
Q 1294 -91 989 -36 
Q 684 19 347 128 
L 347 722 
Q 666 556 975 473 
Q 1284 391 1588 391 
Q 1994 391 2212 530 
Q 2431 669 2431 922 
Q 2431 1156 2273 1281 
Q 2116 1406 1581 1522 
L 1381 1569 
Q 847 1681 609 1914 
Q 372 2147 372 2553 
Q 372 3047 722 3315 
Q 1072 3584 1716 3584 
Q 2034 3584 2315 3537 
Q 2597 3491 2834 3397 
z
" transform="scale(0.015625)"/>
      <path id="DejaVuSans-29" d="M 513 4856 
L 1013 4856 
Q 1481 4119 1714 3412 
Q 1947 2706 1947 2009 
Q 1947 1309 1714 600 
Q 1481 -109 1013 -844 
L 513 -844 
Q 928 -128 1133 580 
Q 1338 1288 1338 2009 
Q 1338 2731 1133 3434 
Q 928 4138 513 4856 
z
" transform="scale(0.015625)"/>
     </defs>
     <use xlink:href="#DejaVuSans-52"/>
     <use xlink:href="#DejaVuSans-65" transform="translate(64.982422 0)"/>
     <use xlink:href="#DejaVuSans-6c" transform="translate(126.505859 0)"/>
     <use xlink:href="#DejaVuSans-69" transform="translate(154.289062 0)"/>
     <use xlink:href="#DejaVuSans-61" transform="translate(182.072266 0)"/>
     <use xlink:href="#DejaVuSans-62" transform="translate(243.351562 0)"/>
     <use xlink:href="#DejaVuSans-69" transform="translate(306.828125 0)"/>
     <use xlink:href="#DejaVuSans-6c" transform="translate(334.611328 0)"/>
     <use xlink:href="#DejaVuSans-69" transform="translate(362.394531 0)"/>
     <use xlink:href="#DejaVuSans-74" transform="translate(390.177734 0)"/>
     <use xlink:href="#DejaVuSans-79" transform="translate(429.386719 0)"/>
     <use xlink:href="#DejaVuSans-20" transform="translate(488.566406 0)"/>
     <use xlink:href="#DejaVuSans-28" transform="translate(520.353516 0)"/>
     <use xlink:href="#DejaVuSans-31" transform="translate(559.367188 0)"/>
     <use xlink:href="#DejaVuSans-35" transform="translate(622.990234 0)"/>
     <use xlink:href="#DejaVuSans-20" transform="translate(686.613281 0)"/>
     <use xlink:href="#DejaVuSans-65" transform="translate(718.400391 0)"/>
     <use xlink:href="#DejaVuSans-71" transform="translate(779.923828 0)"/>
     <use xlink:href="#DejaVuSans-75" transform="translate(843.400391 0)"/>
     <use xlink:href="#DejaVuSans-61" transform="translate(906.779297 0)"/>
     <use xlink:href="#DejaVuSans-6c" transform="translate(968.058594 0)"/>
     <use xlink:href="#DejaVuSans-2d" transform="translate(995.841797 0)"/>
     <use xlink:href="#DejaVuSans-77" transform="translate(1031.925781 0)"/>
     <use xlink:href="#DejaVuSans-69" transform="translate(1113.712891 0)"/>
     <use xlink:href="#DejaVuSans-64" transform="translate(1141.496094 0)"/>
     <use xlink:href="#DejaVuSans-74" transform="translate(1204.972656 0)"/>
     <use xlink:href="#DejaVuSans-68" transform="translate(1244.181641 0)"/>
     <use xlink:href="#DejaVuSans-20" transform="translate(1307.560547 0)"/>
     <use xlink:href="#DejaVuSans-62" transform="translate(1339.347656 0)"/>
     <use xlink:href="#DejaVuSans-69" transform="translate(1402.824219 0)"/>
     <use xlink:href="#DejaVuSans-6e" transform="translate(1430.607422 0)"/>
     <use xlink:href="#DejaVuSans-73" transform="translate(1493.986328 0)"/>
     <use xlink:href="#DejaVuSans-29" transform="translate(1546.085938 0)"/>
    </g>
   </g>
  </g>
  <g id="axes_2">
   <g id="patch_5">
    <path d="M 427.18125 255.544 
L 760.109689 255.544 
L 760.109689 79.296 
L 427.18125 79.296 
z
" style="fill: #ffffff"/>
   </g>
   <g id="matplotlib.axis_3">
    <g id="xtick_7">
     <g id="line2d_29">
      <path d="M 439.744587 255.544 
L 439.744587 79.296 
" clip-path="url(#pa645f668a1)" style="fill: none; stroke: #b0b0b0; stroke-opacity: 0.15; stroke-width: 0.8; stroke-linecap: square"/>
     </g>
     <g id="line2d_30">
      <g>
       <use xlink:href="#m9dee0c1ba7" x="439.744587" y="255.544" style="stroke: #000000; stroke-width: 0.8"/>
      </g>
     </g>
     <g id="text_16">
      <!-- 0.5 -->
      <g transform="translate(431.793025 270.142437) scale(0.1 -0.1)">
       <use xlink:href="#DejaVuSans-30"/>
       <use xlink:href="#DejaVuSans-2e" transform="translate(63.623047 0)"/>
       <use xlink:href="#DejaVuSans-35" transform="translate(95.410156 0)"/>
      </g>
     </g>
    </g>
    <g id="xtick_8">
     <g id="line2d_31">
      <path d="M 502.561274 255.544 
L 502.561274 79.296 
" clip-path="url(#pa645f668a1)" style="fill: none; stroke: #b0b0b0; stroke-opacity: 0.15; stroke-width: 0.8; stroke-linecap: square"/>
     </g>
     <g id="line2d_32">
      <g>
       <use xlink:href="#m9dee0c1ba7" x="502.561274" y="255.544" style="stroke: #000000; stroke-width: 0.8"/>
      </g>
     </g>
     <g id="text_17">
      <!-- 0.6 -->
      <g transform="translate(494.609711 270.142437) scale(0.1 -0.1)">
       <use xlink:href="#DejaVuSans-30"/>
       <use xlink:href="#DejaVuSans-2e" transform="translate(63.623047 0)"/>
       <use xlink:href="#DejaVuSans-36" transform="translate(95.410156 0)"/>
      </g>
     </g>
    </g>
    <g id="xtick_9">
     <g id="line2d_33">
      <path d="M 565.377961 255.544 
L 565.377961 79.296 
" clip-path="url(#pa645f668a1)" style="fill: none; stroke: #b0b0b0; stroke-opacity: 0.15; stroke-width: 0.8; stroke-linecap: square"/>
     </g>
     <g id="line2d_34">
      <g>
       <use xlink:href="#m9dee0c1ba7" x="565.377961" y="255.544" style="stroke: #000000; stroke-width: 0.8"/>
      </g>
     </g>
     <g id="text_18">
      <!-- 0.7 -->
      <g transform="translate(557.426398 270.142437) scale(0.1 -0.1)">
       <use xlink:href="#DejaVuSans-30"/>
       <use xlink:href="#DejaVuSans-2e" transform="translate(63.623047 0)"/>
       <use xlink:href="#DejaVuSans-37" transform="translate(95.410156 0)"/>
      </g>
     </g>
    </g>
    <g id="xtick_10">
     <g id="line2d_35">
      <path d="M 628.194647 255.544 
L 628.194647 79.296 
" clip-path="url(#pa645f668a1)" style="fill: none; stroke: #b0b0b0; stroke-opacity: 0.15; stroke-width: 0.8; stroke-linecap: square"/>
     </g>
     <g id="line2d_36">
      <g>
       <use xlink:href="#m9dee0c1ba7" x="628.194647" y="255.544" style="stroke: #000000; stroke-width: 0.8"/>
      </g>
     </g>
     <g id="text_19">
      <!-- 0.8 -->
      <g transform="translate(620.243085 270.142437) scale(0.1 -0.1)">
       <use xlink:href="#DejaVuSans-30"/>
       <use xlink:href="#DejaVuSans-2e" transform="translate(63.623047 0)"/>
       <use xlink:href="#DejaVuSans-38" transform="translate(95.410156 0)"/>
      </g>
     </g>
    </g>
    <g id="xtick_11">
     <g id="line2d_37">
      <path d="M 691.011334 255.544 
L 691.011334 79.296 
" clip-path="url(#pa645f668a1)" style="fill: none; stroke: #b0b0b0; stroke-opacity: 0.15; stroke-width: 0.8; stroke-linecap: square"/>
     </g>
     <g id="line2d_38">
      <g>
       <use xlink:href="#m9dee0c1ba7" x="691.011334" y="255.544" style="stroke: #000000; stroke-width: 0.8"/>
      </g>
     </g>
     <g id="text_20">
      <!-- 0.9 -->
      <g transform="translate(683.059771 270.142437) scale(0.1 -0.1)">
       <use xlink:href="#DejaVuSans-30"/>
       <use xlink:href="#DejaVuSans-2e" transform="translate(63.623047 0)"/>
       <use xlink:href="#DejaVuSans-39" transform="translate(95.410156 0)"/>
      </g>
     </g>
    </g>
    <g id="xtick_12">
     <g id="line2d_39">
      <path d="M 753.82802 255.544 
L 753.82802 79.296 
" clip-path="url(#pa645f668a1)" style="fill: none; stroke: #b0b0b0; stroke-opacity: 0.15; stroke-width: 0.8; stroke-linecap: square"/>
     </g>
     <g id="line2d_40">
      <g>
       <use xlink:href="#m9dee0c1ba7" x="753.82802" y="255.544" style="stroke: #000000; stroke-width: 0.8"/>
      </g>
     </g>
     <g id="text_21">
      <!-- 1.0 -->
      <g transform="translate(745.876458 270.142437) scale(0.1 -0.1)">
       <use xlink:href="#DejaVuSans-31"/>
       <use xlink:href="#DejaVuSans-2e" transform="translate(63.623047 0)"/>
       <use xlink:href="#DejaVuSans-30" transform="translate(95.410156 0)"/>
      </g>
     </g>
    </g>
    <g id="text_22">
     <!-- Mean top-label probability -->
     <g transform="translate(528.077501 283.820562) scale(0.1 -0.1)">
      <use xlink:href="#DejaVuSans-4d"/>
      <use xlink:href="#DejaVuSans-65" transform="translate(86.279297 0)"/>
      <use xlink:href="#DejaVuSans-61" transform="translate(147.802734 0)"/>
      <use xlink:href="#DejaVuSans-6e" transform="translate(209.082031 0)"/>
      <use xlink:href="#DejaVuSans-20" transform="translate(272.460938 0)"/>
      <use xlink:href="#DejaVuSans-74" transform="translate(304.248047 0)"/>
      <use xlink:href="#DejaVuSans-6f" transform="translate(343.457031 0)"/>
      <use xlink:href="#DejaVuSans-70" transform="translate(404.638672 0)"/>
      <use xlink:href="#DejaVuSans-2d" transform="translate(468.115234 0)"/>
      <use xlink:href="#DejaVuSans-6c" transform="translate(504.199219 0)"/>
      <use xlink:href="#DejaVuSans-61" transform="translate(531.982422 0)"/>
      <use xlink:href="#DejaVuSans-62" transform="translate(593.261719 0)"/>
      <use xlink:href="#DejaVuSans-65" transform="translate(656.738281 0)"/>
      <use xlink:href="#DejaVuSans-6c" transform="translate(718.261719 0)"/>
      <use xlink:href="#DejaVuSans-20" transform="translate(746.044922 0)"/>
      <use xlink:href="#DejaVuSans-70" transform="translate(777.832031 0)"/>
      <use xlink:href="#DejaVuSans-72" transform="translate(841.308594 0)"/>
      <use xlink:href="#DejaVuSans-6f" transform="translate(880.171875 0)"/>
      <use xlink:href="#DejaVuSans-62" transform="translate(941.353516 0)"/>
      <use xlink:href="#DejaVuSans-61" transform="translate(1004.830078 0)"/>
      <use xlink:href="#DejaVuSans-62" transform="translate(1066.109375 0)"/>
      <use xlink:href="#DejaVuSans-69" transform="translate(1129.585938 0)"/>
      <use xlink:href="#DejaVuSans-6c" transform="translate(1157.369141 0)"/>
      <use xlink:href="#DejaVuSans-69" transform="translate(1185.152344 0)"/>
      <use xlink:href="#DejaVuSans-74" transform="translate(1212.935547 0)"/>
      <use xlink:href="#DejaVuSans-79" transform="translate(1252.144531 0)"/>
     </g>
    </g>
   </g>
   <g id="matplotlib.axis_4">
    <g id="ytick_7">
     <g id="line2d_41">
      <path d="M 427.18125 255.544 
L 760.109689 255.544 
" clip-path="url(#pa645f668a1)" style="fill: none; stroke: #b0b0b0; stroke-opacity: 0.15; stroke-width: 0.8; stroke-linecap: square"/>
     </g>
     <g id="line2d_42">
      <g>
       <use xlink:href="#mf8e502f2d9" x="427.18125" y="255.544" style="stroke: #000000; stroke-width: 0.8"/>
      </g>
     </g>
     <g id="text_23">
      <!-- 0.0 -->
      <g transform="translate(404.278125 259.343219) scale(0.1 -0.1)">
       <use xlink:href="#DejaVuSans-30"/>
       <use xlink:href="#DejaVuSans-2e" transform="translate(63.623047 0)"/>
       <use xlink:href="#DejaVuSans-30" transform="translate(95.410156 0)"/>
      </g>
     </g>
    </g>
    <g id="ytick_8">
     <g id="line2d_43">
      <path d="M 427.18125 221.321087 
L 760.109689 221.321087 
" clip-path="url(#pa645f668a1)" style="fill: none; stroke: #b0b0b0; stroke-opacity: 0.15; stroke-width: 0.8; stroke-linecap: square"/>
     </g>
     <g id="line2d_44">
      <g>
       <use xlink:href="#mf8e502f2d9" x="427.18125" y="221.321087" style="stroke: #000000; stroke-width: 0.8"/>
      </g>
     </g>
     <g id="text_24">
      <!-- 0.2 -->
      <g transform="translate(404.278125 225.120306) scale(0.1 -0.1)">
       <use xlink:href="#DejaVuSans-30"/>
       <use xlink:href="#DejaVuSans-2e" transform="translate(63.623047 0)"/>
       <use xlink:href="#DejaVuSans-32" transform="translate(95.410156 0)"/>
      </g>
     </g>
    </g>
    <g id="ytick_9">
     <g id="line2d_45">
      <path d="M 427.18125 187.098175 
L 760.109689 187.098175 
" clip-path="url(#pa645f668a1)" style="fill: none; stroke: #b0b0b0; stroke-opacity: 0.15; stroke-width: 0.8; stroke-linecap: square"/>
     </g>
     <g id="line2d_46">
      <g>
       <use xlink:href="#mf8e502f2d9" x="427.18125" y="187.098175" style="stroke: #000000; stroke-width: 0.8"/>
      </g>
     </g>
     <g id="text_25">
      <!-- 0.4 -->
      <g transform="translate(404.278125 190.897394) scale(0.1 -0.1)">
       <use xlink:href="#DejaVuSans-30"/>
       <use xlink:href="#DejaVuSans-2e" transform="translate(63.623047 0)"/>
       <use xlink:href="#DejaVuSans-34" transform="translate(95.410156 0)"/>
      </g>
     </g>
    </g>
    <g id="ytick_10">
     <g id="line2d_47">
      <path d="M 427.18125 152.875262 
L 760.109689 152.875262 
" clip-path="url(#pa645f668a1)" style="fill: none; stroke: #b0b0b0; stroke-opacity: 0.15; stroke-width: 0.8; stroke-linecap: square"/>
     </g>
     <g id="line2d_48">
      <g>
       <use xlink:href="#mf8e502f2d9" x="427.18125" y="152.875262" style="stroke: #000000; stroke-width: 0.8"/>
      </g>
     </g>
     <g id="text_26">
      <!-- 0.6 -->
      <g transform="translate(404.278125 156.674481) scale(0.1 -0.1)">
       <use xlink:href="#DejaVuSans-30"/>
       <use xlink:href="#DejaVuSans-2e" transform="translate(63.623047 0)"/>
       <use xlink:href="#DejaVuSans-36" transform="translate(95.410156 0)"/>
      </g>
     </g>
    </g>
    <g id="ytick_11">
     <g id="line2d_49">
      <path d="M 427.18125 118.65235 
L 760.109689 118.65235 
" clip-path="url(#pa645f668a1)" style="fill: none; stroke: #b0b0b0; stroke-opacity: 0.15; stroke-width: 0.8; stroke-linecap: square"/>
     </g>
     <g id="line2d_50">
      <g>
       <use xlink:href="#mf8e502f2d9" x="427.18125" y="118.65235" style="stroke: #000000; stroke-width: 0.8"/>
      </g>
     </g>
     <g id="text_27">
      <!-- 0.8 -->
      <g transform="translate(404.278125 122.451568) scale(0.1 -0.1)">
       <use xlink:href="#DejaVuSans-30"/>
       <use xlink:href="#DejaVuSans-2e" transform="translate(63.623047 0)"/>
       <use xlink:href="#DejaVuSans-38" transform="translate(95.410156 0)"/>
      </g>
     </g>
    </g>
    <g id="ytick_12">
     <g id="line2d_51">
      <path d="M 427.18125 84.429437 
L 760.109689 84.429437 
" clip-path="url(#pa645f668a1)" style="fill: none; stroke: #b0b0b0; stroke-opacity: 0.15; stroke-width: 0.8; stroke-linecap: square"/>
     </g>
     <g id="line2d_52">
      <g>
       <use xlink:href="#mf8e502f2d9" x="427.18125" y="84.429437" style="stroke: #000000; stroke-width: 0.8"/>
      </g>
     </g>
     <g id="text_28">
      <!-- 1.0 -->
      <g transform="translate(404.278125 88.228656) scale(0.1 -0.1)">
       <use xlink:href="#DejaVuSans-31"/>
       <use xlink:href="#DejaVuSans-2e" transform="translate(63.623047 0)"/>
       <use xlink:href="#DejaVuSans-30" transform="translate(95.410156 0)"/>
      </g>
     </g>
    </g>
    <g id="text_29">
     <!-- Fraction of evaluated examples -->
     <g transform="translate(398.198437 246.02625) rotate(-90) scale(0.1 -0.1)">
      <defs>
       <path id="DejaVuSans-46" d="M 628 4666 
L 3309 4666 
L 3309 4134 
L 1259 4134 
L 1259 2759 
L 3109 2759 
L 3109 2228 
L 1259 2228 
L 1259 0 
L 628 0 
L 628 4666 
z
" transform="scale(0.015625)"/>
       <path id="DejaVuSans-66" d="M 2375 4863 
L 2375 4384 
L 1825 4384 
Q 1516 4384 1395 4259 
Q 1275 4134 1275 3809 
L 1275 3500 
L 2222 3500 
L 2222 3053 
L 1275 3053 
L 1275 0 
L 697 0 
L 697 3053 
L 147 3053 
L 147 3500 
L 697 3500 
L 697 3744 
Q 697 4328 969 4595 
Q 1241 4863 1831 4863 
L 2375 4863 
z
" transform="scale(0.015625)"/>
       <path id="DejaVuSans-76" d="M 191 3500 
L 800 3500 
L 1894 563 
L 2988 3500 
L 3597 3500 
L 2284 0 
L 1503 0 
L 191 3500 
z
" transform="scale(0.015625)"/>
       <path id="DejaVuSans-78" d="M 3513 3500 
L 2247 1797 
L 3578 0 
L 2900 0 
L 1881 1375 
L 863 0 
L 184 0 
L 1544 1831 
L 300 3500 
L 978 3500 
L 1906 2253 
L 2834 3500 
L 3513 3500 
z
" transform="scale(0.015625)"/>
      </defs>
      <use xlink:href="#DejaVuSans-46"/>
      <use xlink:href="#DejaVuSans-72" transform="translate(50.269531 0)"/>
      <use xlink:href="#DejaVuSans-61" transform="translate(91.382812 0)"/>
      <use xlink:href="#DejaVuSans-63" transform="translate(152.662109 0)"/>
      <use xlink:href="#DejaVuSans-74" transform="translate(207.642578 0)"/>
      <use xlink:href="#DejaVuSans-69" transform="translate(246.851562 0)"/>
      <use xlink:href="#DejaVuSans-6f" transform="translate(274.634766 0)"/>
      <use xlink:href="#DejaVuSans-6e" transform="translate(335.816406 0)"/>
      <use xlink:href="#DejaVuSans-20" transform="translate(399.195312 0)"/>
      <use xlink:href="#DejaVuSans-6f" transform="translate(430.982422 0)"/>
      <use xlink:href="#DejaVuSans-66" transform="translate(492.164062 0)"/>
      <use xlink:href="#DejaVuSans-20" transform="translate(527.369141 0)"/>
      <use xlink:href="#DejaVuSans-65" transform="translate(559.15625 0)"/>
      <use xlink:href="#DejaVuSans-76" transform="translate(620.679688 0)"/>
      <use xlink:href="#DejaVuSans-61" transform="translate(679.859375 0)"/>
      <use xlink:href="#DejaVuSans-6c" transform="translate(741.138672 0)"/>
      <use xlink:href="#DejaVuSans-75" transform="translate(768.921875 0)"/>
      <use xlink:href="#DejaVuSans-61" transform="translate(832.300781 0)"/>
      <use xlink:href="#DejaVuSans-74" transform="translate(893.580078 0)"/>
      <use xlink:href="#DejaVuSans-65" transform="translate(932.789062 0)"/>
      <use xlink:href="#DejaVuSans-64" transform="translate(994.3125 0)"/>
      <use xlink:href="#DejaVuSans-20" transform="translate(1057.789062 0)"/>
      <use xlink:href="#DejaVuSans-65" transform="translate(1089.576172 0)"/>
      <use xlink:href="#DejaVuSans-78" transform="translate(1149.349609 0)"/>
      <use xlink:href="#DejaVuSans-61" transform="translate(1208.529297 0)"/>
      <use xlink:href="#DejaVuSans-6d" transform="translate(1269.808594 0)"/>
      <use xlink:href="#DejaVuSans-70" transform="translate(1367.220703 0)"/>
      <use xlink:href="#DejaVuSans-6c" transform="translate(1430.697266 0)"/>
      <use xlink:href="#DejaVuSans-65" transform="translate(1458.480469 0)"/>
      <use xlink:href="#DejaVuSans-73" transform="translate(1520.003906 0)"/>
     </g>
    </g>
   </g>
   <g id="line2d_53">
    <path d="M 450.415018 240.999262 
L 478.015066 227.310097 
L 524.117821 227.310097 
L 566.594822 227.310097 
L 608.753149 229.876816 
L 650.432456 233.299107 
L 687.80292 235.865825 
L 724.256835 251.266136 
" clip-path="url(#pa645f668a1)" style="fill: none; stroke: #2874a6; stroke-width: 1.5; stroke-linecap: square"/>
    <g clip-path="url(#pa645f668a1)">
     <use xlink:href="#m6799b2fcbf" x="450.415018" y="240.999262" style="fill: #2874a6; stroke: #2874a6"/>
     <use xlink:href="#m6799b2fcbf" x="478.015066" y="227.310097" style="fill: #2874a6; stroke: #2874a6"/>
     <use xlink:href="#m6799b2fcbf" x="524.117821" y="227.310097" style="fill: #2874a6; stroke: #2874a6"/>
     <use xlink:href="#m6799b2fcbf" x="566.594822" y="227.310097" style="fill: #2874a6; stroke: #2874a6"/>
     <use xlink:href="#m6799b2fcbf" x="608.753149" y="229.876816" style="fill: #2874a6; stroke: #2874a6"/>
     <use xlink:href="#m6799b2fcbf" x="650.432456" y="233.299107" style="fill: #2874a6; stroke: #2874a6"/>
     <use xlink:href="#m6799b2fcbf" x="687.80292" y="235.865825" style="fill: #2874a6; stroke: #2874a6"/>
     <use xlink:href="#m6799b2fcbf" x="724.256835" y="251.266136" style="fill: #2874a6; stroke: #2874a6"/>
    </g>
   </g>
   <g id="line2d_54">
    <path d="M 447.378543 247.843845 
L 481.009854 242.710408 
L 521.243559 235.010252 
L 567.601895 235.010252 
L 605.733039 235.010252 
L 650.144002 234.15468 
L 691.765637 221.321087 
L 730.39027 222.17666 
" clip-path="url(#pa645f668a1)" style="fill: none; stroke: #15927f; stroke-width: 1.5; stroke-linecap: square"/>
    <g clip-path="url(#pa645f668a1)">
     <use xlink:href="#m203d1f03a9" x="447.378543" y="247.843845" style="fill: #15927f; stroke: #15927f"/>
     <use xlink:href="#m203d1f03a9" x="481.009854" y="242.710408" style="fill: #15927f; stroke: #15927f"/>
     <use xlink:href="#m203d1f03a9" x="521.243559" y="235.010252" style="fill: #15927f; stroke: #15927f"/>
     <use xlink:href="#m203d1f03a9" x="567.601895" y="235.010252" style="fill: #15927f; stroke: #15927f"/>
     <use xlink:href="#m203d1f03a9" x="605.733039" y="235.010252" style="fill: #15927f; stroke: #15927f"/>
     <use xlink:href="#m203d1f03a9" x="650.144002" y="234.15468" style="fill: #15927f; stroke: #15927f"/>
     <use xlink:href="#m203d1f03a9" x="691.765637" y="221.321087" style="fill: #15927f; stroke: #15927f"/>
     <use xlink:href="#m203d1f03a9" x="730.39027" y="222.17666" style="fill: #15927f; stroke: #15927f"/>
    </g>
   </g>
   <g id="line2d_55">
    <path d="M 451.269962 251.266136 
L 483.864272 229.876816 
L 525.704618 205.920777 
L 566.168303 206.77635 
L 600.960982 222.17666 
L 643.70219 246.988272 
L 683.027462 254.688427 
" clip-path="url(#pa645f668a1)" style="fill: none; stroke: #778899; stroke-width: 1.5; stroke-linecap: square"/>
    <g clip-path="url(#pa645f668a1)">
     <use xlink:href="#m8be6c40619" x="451.269962" y="251.266136" style="fill: #778899; stroke: #778899"/>
     <use xlink:href="#m8be6c40619" x="483.864272" y="229.876816" style="fill: #778899; stroke: #778899"/>
     <use xlink:href="#m8be6c40619" x="525.704618" y="205.920777" style="fill: #778899; stroke: #778899"/>
     <use xlink:href="#m8be6c40619" x="566.168303" y="206.77635" style="fill: #778899; stroke: #778899"/>
     <use xlink:href="#m8be6c40619" x="600.960982" y="222.17666" style="fill: #778899; stroke: #778899"/>
     <use xlink:href="#m8be6c40619" x="643.70219" y="246.988272" style="fill: #778899; stroke: #778899"/>
     <use xlink:href="#m8be6c40619" x="683.027462" y="254.688427" style="fill: #778899; stroke: #778899"/>
    </g>
   </g>
   <g id="patch_6">
    <path d="M 427.18125 255.544 
L 427.18125 79.296 
" style="fill: none; stroke: #000000; stroke-width: 0.8; stroke-linejoin: miter; stroke-linecap: square"/>
   </g>
   <g id="patch_7">
    <path d="M 427.18125 255.544 
L 760.109689 255.544 
" style="fill: none; stroke: #000000; stroke-width: 0.8; stroke-linejoin: miter; stroke-linecap: square"/>
   </g>
   <g id="text_30">
    <!-- Where the predictions fall -->
    <g transform="translate(516.27922 73.296) scale(0.12 -0.12)">
     <defs>
      <path id="DejaVuSans-57" d="M 213 4666 
L 850 4666 
L 1831 722 
L 2809 4666 
L 3519 4666 
L 4500 722 
L 5478 4666 
L 6119 4666 
L 4947 0 
L 4153 0 
L 3169 4050 
L 2175 0 
L 1381 0 
L 213 4666 
z
" transform="scale(0.015625)"/>
     </defs>
     <use xlink:href="#DejaVuSans-57"/>
     <use xlink:href="#DejaVuSans-68" transform="translate(98.876953 0)"/>
     <use xlink:href="#DejaVuSans-65" transform="translate(162.255859 0)"/>
     <use xlink:href="#DejaVuSans-72" transform="translate(223.779297 0)"/>
     <use xlink:href="#DejaVuSans-65" transform="translate(262.642578 0)"/>
     <use xlink:href="#DejaVuSans-20" transform="translate(324.166016 0)"/>
     <use xlink:href="#DejaVuSans-74" transform="translate(355.953125 0)"/>
     <use xlink:href="#DejaVuSans-68" transform="translate(395.162109 0)"/>
     <use xlink:href="#DejaVuSans-65" transform="translate(458.541016 0)"/>
     <use xlink:href="#DejaVuSans-20" transform="translate(520.064453 0)"/>
     <use xlink:href="#DejaVuSans-70" transform="translate(551.851562 0)"/>
     <use xlink:href="#DejaVuSans-72" transform="translate(615.328125 0)"/>
     <use xlink:href="#DejaVuSans-65" transform="translate(654.191406 0)"/>
     <use xlink:href="#DejaVuSans-64" transform="translate(715.714844 0)"/>
     <use xlink:href="#DejaVuSans-69" transform="translate(779.191406 0)"/>
     <use xlink:href="#DejaVuSans-63" transform="translate(806.974609 0)"/>
     <use xlink:href="#DejaVuSans-74" transform="translate(861.955078 0)"/>
     <use xlink:href="#DejaVuSans-69" transform="translate(901.164062 0)"/>
     <use xlink:href="#DejaVuSans-6f" transform="translate(928.947266 0)"/>
     <use xlink:href="#DejaVuSans-6e" transform="translate(990.128906 0)"/>
     <use xlink:href="#DejaVuSans-73" transform="translate(1053.507812 0)"/>
     <use xlink:href="#DejaVuSans-20" transform="translate(1105.607422 0)"/>
     <use xlink:href="#DejaVuSans-66" transform="translate(1137.394531 0)"/>
     <use xlink:href="#DejaVuSans-61" transform="translate(1172.599609 0)"/>
     <use xlink:href="#DejaVuSans-6c" transform="translate(1233.878906 0)"/>
     <use xlink:href="#DejaVuSans-6c" transform="translate(1261.662109 0)"/>
    </g>
   </g>
  </g>
  <g id="text_31">
   <!-- SST-2 pilot · Qwen 0.5B · 200 held-out examples -->
   <g transform="translate(42.71725 17.837813) scale(0.14 -0.14)">
    <defs>
     <path id="DejaVuSans-53" d="M 3425 4513 
L 3425 3897 
Q 3066 4069 2747 4153 
Q 2428 4238 2131 4238 
Q 1616 4238 1336 4038 
Q 1056 3838 1056 3469 
Q 1056 3159 1242 3001 
Q 1428 2844 1947 2747 
L 2328 2669 
Q 3034 2534 3370 2195 
Q 3706 1856 3706 1288 
Q 3706 609 3251 259 
Q 2797 -91 1919 -91 
Q 1588 -91 1214 -16 
Q 841 59 441 206 
L 441 856 
Q 825 641 1194 531 
Q 1563 422 1919 422 
Q 2459 422 2753 634 
Q 3047 847 3047 1241 
Q 3047 1584 2836 1778 
Q 2625 1972 2144 2069 
L 1759 2144 
Q 1053 2284 737 2584 
Q 422 2884 422 3419 
Q 422 4038 858 4394 
Q 1294 4750 2059 4750 
Q 2388 4750 2728 4690 
Q 3069 4631 3425 4513 
z
" transform="scale(0.015625)"/>
     <path id="DejaVuSans-54" d="M -19 4666 
L 3928 4666 
L 3928 4134 
L 2272 4134 
L 2272 0 
L 1638 0 
L 1638 4134 
L -19 4134 
L -19 4666 
z
" transform="scale(0.015625)"/>
     <path id="DejaVuSans-b7" d="M 684 2619 
L 1344 2619 
L 1344 1825 
L 684 1825 
L 684 2619 
z
" transform="scale(0.015625)"/>
     <path id="DejaVuSans-51" d="M 2522 4238 
Q 1834 4238 1429 3725 
Q 1025 3213 1025 2328 
Q 1025 1447 1429 934 
Q 1834 422 2522 422 
Q 3209 422 3611 934 
Q 4013 1447 4013 2328 
Q 4013 3213 3611 3725 
Q 3209 4238 2522 4238 
z
M 3406 84 
L 4238 -825 
L 3475 -825 
L 2784 -78 
Q 2681 -84 2626 -87 
Q 2572 -91 2522 -91 
Q 1538 -91 948 567 
Q 359 1225 359 2328 
Q 359 3434 948 4092 
Q 1538 4750 2522 4750 
Q 3503 4750 4090 4092 
Q 4678 3434 4678 2328 
Q 4678 1516 4351 937 
Q 4025 359 3406 84 
z
" transform="scale(0.015625)"/>
     <path id="DejaVuSans-42" d="M 1259 2228 
L 1259 519 
L 2272 519 
Q 2781 519 3026 730 
Q 3272 941 3272 1375 
Q 3272 1813 3026 2020 
Q 2781 2228 2272 2228 
L 1259 2228 
z
M 1259 4147 
L 1259 2741 
L 2194 2741 
Q 2656 2741 2882 2914 
Q 3109 3088 3109 3444 
Q 3109 3797 2882 3972 
Q 2656 4147 2194 4147 
L 1259 4147 
z
M 628 4666 
L 2241 4666 
Q 2963 4666 3353 4366 
Q 3744 4066 3744 3513 
Q 3744 3084 3544 2831 
Q 3344 2578 2956 2516 
Q 3422 2416 3680 2098 
Q 3938 1781 3938 1306 
Q 3938 681 3513 340 
Q 3088 0 2303 0 
L 628 0 
L 628 4666 
z
" transform="scale(0.015625)"/>
    </defs>
    <use xlink:href="#DejaVuSans-53"/>
    <use xlink:href="#DejaVuSans-53" transform="translate(63.476562 0)"/>
    <use xlink:href="#DejaVuSans-54" transform="translate(126.953125 0)"/>
    <use xlink:href="#DejaVuSans-2d" transform="translate(178.912109 0)"/>
    <use xlink:href="#DejaVuSans-32" transform="translate(214.996094 0)"/>
    <use xlink:href="#DejaVuSans-20" transform="translate(278.619141 0)"/>
    <use xlink:href="#DejaVuSans-70" transform="translate(310.40625 0)"/>
    <use xlink:href="#DejaVuSans-69" transform="translate(373.882812 0)"/>
    <use xlink:href="#DejaVuSans-6c" transform="translate(401.666016 0)"/>
    <use xlink:href="#DejaVuSans-6f" transform="translate(429.449219 0)"/>
    <use xlink:href="#DejaVuSans-74" transform="translate(490.630859 0)"/>
    <use xlink:href="#DejaVuSans-20" transform="translate(529.839844 0)"/>
    <use xlink:href="#DejaVuSans-b7" transform="translate(561.626953 0)"/>
    <use xlink:href="#DejaVuSans-20" transform="translate(593.414062 0)"/>
    <use xlink:href="#DejaVuSans-51" transform="translate(625.201172 0)"/>
    <use xlink:href="#DejaVuSans-77" transform="translate(703.912109 0)"/>
    <use xlink:href="#DejaVuSans-65" transform="translate(785.699219 0)"/>
    <use xlink:href="#DejaVuSans-6e" transform="translate(847.222656 0)"/>
    <use xlink:href="#DejaVuSans-20" transform="translate(910.601562 0)"/>
    <use xlink:href="#DejaVuSans-30" transform="translate(942.388672 0)"/>
    <use xlink:href="#DejaVuSans-2e" transform="translate(1006.011719 0)"/>
    <use xlink:href="#DejaVuSans-35" transform="translate(1037.798828 0)"/>
    <use xlink:href="#DejaVuSans-42" transform="translate(1101.421875 0)"/>
    <use xlink:href="#DejaVuSans-20" transform="translate(1170.025391 0)"/>
    <use xlink:href="#DejaVuSans-b7" transform="translate(1201.8125 0)"/>
    <use xlink:href="#DejaVuSans-20" transform="translate(1233.599609 0)"/>
    <use xlink:href="#DejaVuSans-32" transform="translate(1265.386719 0)"/>
    <use xlink:href="#DejaVuSans-30" transform="translate(1329.009766 0)"/>
    <use xlink:href="#DejaVuSans-30" transform="translate(1392.632812 0)"/>
    <use xlink:href="#DejaVuSans-20" transform="translate(1456.255859 0)"/>
    <use xlink:href="#DejaVuSans-68" transform="translate(1488.042969 0)"/>
    <use xlink:href="#DejaVuSans-65" transform="translate(1551.421875 0)"/>
    <use xlink:href="#DejaVuSans-6c" transform="translate(1612.945312 0)"/>
    <use xlink:href="#DejaVuSans-64" transform="translate(1640.728516 0)"/>
    <use xlink:href="#DejaVuSans-2d" transform="translate(1704.205078 0)"/>
    <use xlink:href="#DejaVuSans-6f" transform="translate(1742.164062 0)"/>
    <use xlink:href="#DejaVuSans-75" transform="translate(1803.345703 0)"/>
    <use xlink:href="#DejaVuSans-74" transform="translate(1866.724609 0)"/>
    <use xlink:href="#DejaVuSans-20" transform="translate(1905.933594 0)"/>
    <use xlink:href="#DejaVuSans-65" transform="translate(1937.720703 0)"/>
    <use xlink:href="#DejaVuSans-78" transform="translate(1997.494141 0)"/>
    <use xlink:href="#DejaVuSans-61" transform="translate(2056.673828 0)"/>
    <use xlink:href="#DejaVuSans-6d" transform="translate(2117.953125 0)"/>
    <use xlink:href="#DejaVuSans-70" transform="translate(2215.365234 0)"/>
    <use xlink:href="#DejaVuSans-6c" transform="translate(2278.841797 0)"/>
    <use xlink:href="#DejaVuSans-65" transform="translate(2306.625 0)"/>
    <use xlink:href="#DejaVuSans-73" transform="translate(2368.148438 0)"/>
   </g>
  </g>
  <g id="text_32">
   <!-- Restricted-label likelihood probabilities. Bin estimates can be noisy; no post-hoc calibration or test-tuned thresholds. -->
   <g style="fill: #444444" transform="translate(42.71725 344.16) scale(0.08 -0.08)">
    <defs>
     <path id="DejaVuSans-6b" d="M 581 4863 
L 1159 4863 
L 1159 1991 
L 2875 3500 
L 3609 3500 
L 1753 1863 
L 3688 0 
L 2938 0 
L 1159 1709 
L 1159 0 
L 581 0 
L 581 4863 
z
" transform="scale(0.015625)"/>
     <path id="DejaVuSans-3b" d="M 750 3309 
L 1409 3309 
L 1409 2516 
L 750 2516 
L 750 3309 
z
M 750 794 
L 1409 794 
L 1409 256 
L 897 -744 
L 494 -744 
L 750 256 
L 750 794 
z
" transform="scale(0.015625)"/>
    </defs>
    <use xlink:href="#DejaVuSans-52"/>
    <use xlink:href="#DejaVuSans-65" transform="translate(64.982422 0)"/>
    <use xlink:href="#DejaVuSans-73" transform="translate(126.505859 0)"/>
    <use xlink:href="#DejaVuSans-74" transform="translate(178.605469 0)"/>
    <use xlink:href="#DejaVuSans-72" transform="translate(217.814453 0)"/>
    <use xlink:href="#DejaVuSans-69" transform="translate(258.927734 0)"/>
    <use xlink:href="#DejaVuSans-63" transform="translate(286.710938 0)"/>
    <use xlink:href="#DejaVuSans-74" transform="translate(341.691406 0)"/>
    <use xlink:href="#DejaVuSans-65" transform="translate(380.900391 0)"/>
    <use xlink:href="#DejaVuSans-64" transform="translate(442.423828 0)"/>
    <use xlink:href="#DejaVuSans-2d" transform="translate(505.900391 0)"/>
    <use xlink:href="#DejaVuSans-6c" transform="translate(541.984375 0)"/>
    <use xlink:href="#DejaVuSans-61" transform="translate(569.767578 0)"/>
    <use xlink:href="#DejaVuSans-62" transform="translate(631.046875 0)"/>
    <use xlink:href="#DejaVuSans-65" transform="translate(694.523438 0)"/>
    <use xlink:href="#DejaVuSans-6c" transform="translate(756.046875 0)"/>
    <use xlink:href="#DejaVuSans-20" transform="translate(783.830078 0)"/>
    <use xlink:href="#DejaVuSans-6c" transform="translate(815.617188 0)"/>
    <use xlink:href="#DejaVuSans-69" transform="translate(843.400391 0)"/>
    <use xlink:href="#DejaVuSans-6b" transform="translate(871.183594 0)"/>
    <use xlink:href="#DejaVuSans-65" transform="translate(925.46875 0)"/>
    <use xlink:href="#DejaVuSans-6c" transform="translate(986.992188 0)"/>
    <use xlink:href="#DejaVuSans-69" transform="translate(1014.775391 0)"/>
    <use xlink:href="#DejaVuSans-68" transform="translate(1042.558594 0)"/>
    <use xlink:href="#DejaVuSans-6f" transform="translate(1105.9375 0)"/>
    <use xlink:href="#DejaVuSans-6f" transform="translate(1167.119141 0)"/>
    <use xlink:href="#DejaVuSans-64" transform="translate(1228.300781 0)"/>
    <use xlink:href="#DejaVuSans-20" transform="translate(1291.777344 0)"/>
    <use xlink:href="#DejaVuSans-70" transform="translate(1323.564453 0)"/>
    <use xlink:href="#DejaVuSans-72" transform="translate(1387.041016 0)"/>
    <use xlink:href="#DejaVuSans-6f" transform="translate(1425.904297 0)"/>
    <use xlink:href="#DejaVuSans-62" transform="translate(1487.085938 0)"/>
    <use xlink:href="#DejaVuSans-61" transform="translate(1550.5625 0)"/>
    <use xlink:href="#DejaVuSans-62" transform="translate(1611.841797 0)"/>
    <use xlink:href="#DejaVuSans-69" transform="translate(1675.318359 0)"/>
    <use xlink:href="#DejaVuSans-6c" transform="translate(1703.101562 0)"/>
    <use xlink:href="#DejaVuSans-69" transform="translate(1730.884766 0)"/>
    <use xlink:href="#DejaVuSans-74" transform="translate(1758.667969 0)"/>
    <use xlink:href="#DejaVuSans-69" transform="translate(1797.876953 0)"/>
    <use xlink:href="#DejaVuSans-65" transform="translate(1825.660156 0)"/>
    <use xlink:href="#DejaVuSans-73" transform="translate(1887.183594 0)"/>
    <use xlink:href="#DejaVuSans-2e" transform="translate(1939.283203 0)"/>
    <use xlink:href="#DejaVuSans-20" transform="translate(1971.070312 0)"/>
    <use xlink:href="#DejaVuSans-42" transform="translate(2002.857422 0)"/>
    <use xlink:href="#DejaVuSans-69" transform="translate(2071.460938 0)"/>
    <use xlink:href="#DejaVuSans-6e" transform="translate(2099.244141 0)"/>
    <use xlink:href="#DejaVuSans-20" transform="translate(2162.623047 0)"/>
    <use xlink:href="#DejaVuSans-65" transform="translate(2194.410156 0)"/>
    <use xlink:href="#DejaVuSans-73" transform="translate(2255.933594 0)"/>
    <use xlink:href="#DejaVuSans-74" transform="translate(2308.033203 0)"/>
    <use xlink:href="#DejaVuSans-69" transform="translate(2347.242188 0)"/>
    <use xlink:href="#DejaVuSans-6d" transform="translate(2375.025391 0)"/>
    <use xlink:href="#DejaVuSans-61" transform="translate(2472.4375 0)"/>
    <use xlink:href="#DejaVuSans-74" transform="translate(2533.716797 0)"/>
    <use xlink:href="#DejaVuSans-65" transform="translate(2572.925781 0)"/>
    <use xlink:href="#DejaVuSans-73" transform="translate(2634.449219 0)"/>
    <use xlink:href="#DejaVuSans-20" transform="translate(2686.548828 0)"/>
    <use xlink:href="#DejaVuSans-63" transform="translate(2718.335938 0)"/>
    <use xlink:href="#DejaVuSans-61" transform="translate(2773.316406 0)"/>
    <use xlink:href="#DejaVuSans-6e" transform="translate(2834.595703 0)"/>
    <use xlink:href="#DejaVuSans-20" transform="translate(2897.974609 0)"/>
    <use xlink:href="#DejaVuSans-62" transform="translate(2929.761719 0)"/>
    <use xlink:href="#DejaVuSans-65" transform="translate(2993.238281 0)"/>
    <use xlink:href="#DejaVuSans-20" transform="translate(3054.761719 0)"/>
    <use xlink:href="#DejaVuSans-6e" transform="translate(3086.548828 0)"/>
    <use xlink:href="#DejaVuSans-6f" transform="translate(3149.927734 0)"/>
    <use xlink:href="#DejaVuSans-69" transform="translate(3211.109375 0)"/>
    <use xlink:href="#DejaVuSans-73" transform="translate(3238.892578 0)"/>
    <use xlink:href="#DejaVuSans-79" transform="translate(3290.992188 0)"/>
    <use xlink:href="#DejaVuSans-3b" transform="translate(3350.171875 0)"/>
    <use xlink:href="#DejaVuSans-20" transform="translate(3383.863281 0)"/>
    <use xlink:href="#DejaVuSans-6e" transform="translate(3415.650391 0)"/>
    <use xlink:href="#DejaVuSans-6f" transform="translate(3479.029297 0)"/>
    <use xlink:href="#DejaVuSans-20" transform="translate(3540.210938 0)"/>
    <use xlink:href="#DejaVuSans-70" transform="translate(3571.998047 0)"/>
    <use xlink:href="#DejaVuSans-6f" transform="translate(3635.474609 0)"/>
    <use xlink:href="#DejaVuSans-73" transform="translate(3696.65625 0)"/>
    <use xlink:href="#DejaVuSans-74" transform="translate(3748.755859 0)"/>
    <use xlink:href="#DejaVuSans-2d" transform="translate(3787.964844 0)"/>
    <use xlink:href="#DejaVuSans-68" transform="translate(3824.048828 0)"/>
    <use xlink:href="#DejaVuSans-6f" transform="translate(3887.427734 0)"/>
    <use xlink:href="#DejaVuSans-63" transform="translate(3948.609375 0)"/>
    <use xlink:href="#DejaVuSans-20" transform="translate(4003.589844 0)"/>
    <use xlink:href="#DejaVuSans-63" transform="translate(4035.376953 0)"/>
    <use xlink:href="#DejaVuSans-61" transform="translate(4090.357422 0)"/>
    <use xlink:href="#DejaVuSans-6c" transform="translate(4151.636719 0)"/>
    <use xlink:href="#DejaVuSans-69" transform="translate(4179.419922 0)"/>
    <use xlink:href="#DejaVuSans-62" transform="translate(4207.203125 0)"/>
    <use xlink:href="#DejaVuSans-72" transform="translate(4270.679688 0)"/>
    <use xlink:href="#DejaVuSans-61" transform="translate(4311.792969 0)"/>
    <use xlink:href="#DejaVuSans-74" transform="translate(4373.072266 0)"/>
    <use xlink:href="#DejaVuSans-69" transform="translate(4412.28125 0)"/>
    <use xlink:href="#DejaVuSans-6f" transform="translate(4440.064453 0)"/>
    <use xlink:href="#DejaVuSans-6e" transform="translate(4501.246094 0)"/>
    <use xlink:href="#DejaVuSans-20" transform="translate(4564.625 0)"/>
    <use xlink:href="#DejaVuSans-6f" transform="translate(4596.412109 0)"/>
    <use xlink:href="#DejaVuSans-72" transform="translate(4657.59375 0)"/>
    <use xlink:href="#DejaVuSans-20" transform="translate(4698.707031 0)"/>
    <use xlink:href="#DejaVuSans-74" transform="translate(4730.494141 0)"/>
    <use xlink:href="#DejaVuSans-65" transform="translate(4769.703125 0)"/>
    <use xlink:href="#DejaVuSans-73" transform="translate(4831.226562 0)"/>
    <use xlink:href="#DejaVuSans-74" transform="translate(4883.326172 0)"/>
    <use xlink:href="#DejaVuSans-2d" transform="translate(4922.535156 0)"/>
    <use xlink:href="#DejaVuSans-74" transform="translate(4958.619141 0)"/>
    <use xlink:href="#DejaVuSans-75" transform="translate(4997.828125 0)"/>
    <use xlink:href="#DejaVuSans-6e" transform="translate(5061.207031 0)"/>
    <use xlink:href="#DejaVuSans-65" transform="translate(5124.585938 0)"/>
    <use xlink:href="#DejaVuSans-64" transform="translate(5186.109375 0)"/>
    <use xlink:href="#DejaVuSans-20" transform="translate(5249.585938 0)"/>
    <use xlink:href="#DejaVuSans-74" transform="translate(5281.373047 0)"/>
    <use xlink:href="#DejaVuSans-68" transform="translate(5320.582031 0)"/>
    <use xlink:href="#DejaVuSans-72" transform="translate(5383.960938 0)"/>
    <use xlink:href="#DejaVuSans-65" transform="translate(5422.824219 0)"/>
    <use xlink:href="#DejaVuSans-73" transform="translate(5484.347656 0)"/>
    <use xlink:href="#DejaVuSans-68" transform="translate(5536.447266 0)"/>
    <use xlink:href="#DejaVuSans-6f" transform="translate(5599.826172 0)"/>
    <use xlink:href="#DejaVuSans-6c" transform="translate(5661.007812 0)"/>
    <use xlink:href="#DejaVuSans-64" transform="translate(5688.791016 0)"/>
    <use xlink:href="#DejaVuSans-73" transform="translate(5752.267578 0)"/>
    <use xlink:href="#DejaVuSans-2e" transform="translate(5804.367188 0)"/>
   </g>
  </g>
  <g id="legend_1">
   <g id="line2d_56">
    <path d="M 176.4325 317.214281 
L 185.4325 317.214281 
L 194.4325 317.214281 
" style="fill: none; stroke-dasharray: 3.7,1.6; stroke-dashoffset: 0; stroke: #aaaaaa"/>
   </g>
   <g id="text_33">
    <!-- Perfect calibration -->
    <g transform="translate(201.6325 320.364281) scale(0.09 -0.09)">
     <defs>
      <path id="DejaVuSans-50" d="M 1259 4147 
L 1259 2394 
L 2053 2394 
Q 2494 2394 2734 2622 
Q 2975 2850 2975 3272 
Q 2975 3691 2734 3919 
Q 2494 4147 2053 4147 
L 1259 4147 
z
M 628 4666 
L 2053 4666 
Q 2838 4666 3239 4311 
Q 3641 3956 3641 3272 
Q 3641 2581 3239 2228 
Q 2838 1875 2053 1875 
L 1259 1875 
L 1259 0 
L 628 0 
L 628 4666 
z
" transform="scale(0.015625)"/>
     </defs>
     <use xlink:href="#DejaVuSans-50"/>
     <use xlink:href="#DejaVuSans-65" transform="translate(56.677734 0)"/>
     <use xlink:href="#DejaVuSans-72" transform="translate(118.201172 0)"/>
     <use xlink:href="#DejaVuSans-66" transform="translate(159.314453 0)"/>
     <use xlink:href="#DejaVuSans-65" transform="translate(194.519531 0)"/>
     <use xlink:href="#DejaVuSans-63" transform="translate(256.042969 0)"/>
     <use xlink:href="#DejaVuSans-74" transform="translate(311.023438 0)"/>
     <use xlink:href="#DejaVuSans-20" transform="translate(350.232422 0)"/>
     <use xlink:href="#DejaVuSans-63" transform="translate(382.019531 0)"/>
     <use xlink:href="#DejaVuSans-61" transform="translate(437 0)"/>
     <use xlink:href="#DejaVuSans-6c" transform="translate(498.279297 0)"/>
     <use xlink:href="#DejaVuSans-69" transform="translate(526.0625 0)"/>
     <use xlink:href="#DejaVuSans-62" transform="translate(553.845703 0)"/>
     <use xlink:href="#DejaVuSans-72" transform="translate(617.322266 0)"/>
     <use xlink:href="#DejaVuSans-61" transform="translate(658.435547 0)"/>
     <use xlink:href="#DejaVuSans-74" transform="translate(719.714844 0)"/>
     <use xlink:href="#DejaVuSans-69" transform="translate(758.923828 0)"/>
     <use xlink:href="#DejaVuSans-6f" transform="translate(786.707031 0)"/>
     <use xlink:href="#DejaVuSans-6e" transform="translate(847.888672 0)"/>
    </g>
   </g>
   <g id="line2d_57">
    <path d="M 301.646406 317.214281 
L 310.646406 317.214281 
L 319.646406 317.214281 
" style="fill: none; stroke: #2874a6; stroke-width: 1.5; stroke-linecap: square"/>
    <g>
     <use xlink:href="#m6799b2fcbf" x="310.646406" y="317.214281" style="fill: #2874a6; stroke: #2874a6"/>
    </g>
   </g>
   <g id="text_34">
    <!-- Few-shot: 4/class -->
    <g transform="translate(326.846406 320.364281) scale(0.09 -0.09)">
     <defs>
      <path id="DejaVuSans-3a" d="M 750 794 
L 1409 794 
L 1409 0 
L 750 0 
L 750 794 
z
M 750 3309 
L 1409 3309 
L 1409 2516 
L 750 2516 
L 750 3309 
z
" transform="scale(0.015625)"/>
      <path id="DejaVuSans-2f" d="M 1625 4666 
L 2156 4666 
L 531 -594 
L 0 -594 
L 1625 4666 
z
" transform="scale(0.015625)"/>
     </defs>
     <use xlink:href="#DejaVuSans-46"/>
     <use xlink:href="#DejaVuSans-65" transform="translate(52.019531 0)"/>
     <use xlink:href="#DejaVuSans-77" transform="translate(113.542969 0)"/>
     <use xlink:href="#DejaVuSans-2d" transform="translate(195.330078 0)"/>
     <use xlink:href="#DejaVuSans-73" transform="translate(231.414062 0)"/>
     <use xlink:href="#DejaVuSans-68" transform="translate(283.513672 0)"/>
     <use xlink:href="#DejaVuSans-6f" transform="translate(346.892578 0)"/>
     <use xlink:href="#DejaVuSans-74" transform="translate(408.074219 0)"/>
     <use xlink:href="#DejaVuSans-3a" transform="translate(447.283203 0)"/>
     <use xlink:href="#DejaVuSans-20" transform="translate(480.974609 0)"/>
     <use xlink:href="#DejaVuSans-34" transform="translate(512.761719 0)"/>
     <use xlink:href="#DejaVuSans-2f" transform="translate(576.384766 0)"/>
     <use xlink:href="#DejaVuSans-63" transform="translate(610.076172 0)"/>
     <use xlink:href="#DejaVuSans-6c" transform="translate(665.056641 0)"/>
     <use xlink:href="#DejaVuSans-61" transform="translate(692.839844 0)"/>
     <use xlink:href="#DejaVuSans-73" transform="translate(754.119141 0)"/>
     <use xlink:href="#DejaVuSans-73" transform="translate(806.21875 0)"/>
    </g>
   </g>
   <g id="line2d_58">
    <path d="M 422.091719 317.214281 
L 431.091719 317.214281 
L 440.091719 317.214281 
" style="fill: none; stroke: #15927f; stroke-width: 1.5; stroke-linecap: square"/>
    <g>
     <use xlink:href="#m203d1f03a9" x="431.091719" y="317.214281" style="fill: #15927f; stroke: #15927f"/>
    </g>
   </g>
   <g id="text_35">
    <!-- LoRA: 4/class -->
    <g transform="translate(447.291719 320.364281) scale(0.09 -0.09)">
     <defs>
      <path id="DejaVuSans-4c" d="M 628 4666 
L 1259 4666 
L 1259 531 
L 3531 531 
L 3531 0 
L 628 0 
L 628 4666 
z
" transform="scale(0.015625)"/>
      <path id="DejaVuSans-41" d="M 2188 4044 
L 1331 1722 
L 3047 1722 
L 2188 4044 
z
M 1831 4666 
L 2547 4666 
L 4325 0 
L 3669 0 
L 3244 1197 
L 1141 1197 
L 716 0 
L 50 0 
L 1831 4666 
z
" transform="scale(0.015625)"/>
     </defs>
     <use xlink:href="#DejaVuSans-4c"/>
     <use xlink:href="#DejaVuSans-6f" transform="translate(53.962891 0)"/>
     <use xlink:href="#DejaVuSans-52" transform="translate(115.144531 0)"/>
     <use xlink:href="#DejaVuSans-41" transform="translate(180.626953 0)"/>
     <use xlink:href="#DejaVuSans-3a" transform="translate(247.285156 0)"/>
     <use xlink:href="#DejaVuSans-20" transform="translate(280.976562 0)"/>
     <use xlink:href="#DejaVuSans-34" transform="translate(312.763672 0)"/>
     <use xlink:href="#DejaVuSans-2f" transform="translate(376.386719 0)"/>
     <use xlink:href="#DejaVuSans-63" transform="translate(410.078125 0)"/>
     <use xlink:href="#DejaVuSans-6c" transform="translate(465.058594 0)"/>
     <use xlink:href="#DejaVuSans-61" transform="translate(492.841797 0)"/>
     <use xlink:href="#DejaVuSans-73" transform="translate(554.121094 0)"/>
     <use xlink:href="#DejaVuSans-73" transform="translate(606.220703 0)"/>
    </g>
   </g>
   <g id="line2d_59">
    <path d="M 524.539844 317.214281 
L 533.539844 317.214281 
L 542.539844 317.214281 
" style="fill: none; stroke: #778899; stroke-width: 1.5; stroke-linecap: square"/>
    <g>
     <use xlink:href="#m8be6c40619" x="533.539844" y="317.214281" style="fill: #778899; stroke: #778899"/>
    </g>
   </g>
   <g id="text_36">
    <!-- Zero-shot -->
    <g transform="translate(549.739844 320.364281) scale(0.09 -0.09)">
     <defs>
      <path id="DejaVuSans-5a" d="M 359 4666 
L 4025 4666 
L 4025 4184 
L 1075 531 
L 4097 531 
L 4097 0 
L 288 0 
L 288 481 
L 3238 4134 
L 359 4134 
L 359 4666 
z
" transform="scale(0.015625)"/>
     </defs>
     <use xlink:href="#DejaVuSans-5a"/>
     <use xlink:href="#DejaVuSans-65" transform="translate(68.505859 0)"/>
     <use xlink:href="#DejaVuSans-72" transform="translate(130.029297 0)"/>
     <use xlink:href="#DejaVuSans-6f" transform="translate(168.892578 0)"/>
     <use xlink:href="#DejaVuSans-2d" transform="translate(231.949219 0)"/>
     <use xlink:href="#DejaVuSans-73" transform="translate(268.033203 0)"/>
     <use xlink:href="#DejaVuSans-68" transform="translate(320.132812 0)"/>
     <use xlink:href="#DejaVuSans-6f" transform="translate(383.511719 0)"/>
     <use xlink:href="#DejaVuSans-74" transform="translate(444.693359 0)"/>
    </g>
   </g>
  </g>
 </g>
 <defs>
  <clipPath id="pc26bf7b9b1">
   <rect x="43.78125" y="79.296" width="332.928439" height="176.248"/>
  </clipPath>
  <clipPath id="pa645f668a1">
   <rect x="427.18125" y="79.296" width="332.928439" height="176.248"/>
  </clipPath>
 </defs>
</svg>
